<svg xmlns="http://www.w3.org/2000/svg" viewBox="0 0 512 512">
  <defs>
    <linearGradient id="bg" x1="0%" y1="0%" x2="100%" y2="100%">
      <stop offset="0%" stop-color="#082f23"/>
      <stop offset="45%" stop-color="#0f766e"/>
      <stop offset="100%" stop-color="#065f46"/>
    </linearGradient>
    <linearGradient id="billGrad" x1="0%" y1="0%" x2="100%" y2="100%">
      <stop offset="0%" stop-color="#86efac"/>
      <stop offset="50%" stop-color="#22c55e"/>
      <stop offset="100%" stop-color="#15803d"/>
    </linearGradient>
    <linearGradient id="billShine" x1="0%" y1="0%" x2="0%" y2="100%">
      <stop offset="0%" stop-color="#ffffff" stop-opacity="0.3"/>
      <stop offset="100%" stop-color="#ffffff" stop-opacity="0"/>
    </linearGradient>
    <linearGradient id="stackEdge" x1="0%" y1="0%" x2="0%" y2="100%">
      <stop offset="0%" stop-color="#ffd54f"/>
      <stop offset="50%" stop-color="#ffca28"/>
      <stop offset="100%" stop-color="#e6a100"/>
    </linearGradient>
    <radialGradient id="coinOuterBig" cx="50%" cy="45%" r="55%">
      <stop offset="0%" stop-color="#ffca28"/>
      <stop offset="60%" stop-color="#e6a100"/>
      <stop offset="100%" stop-color="#b8860b"/>
    </radialGradient>
    <radialGradient id="coinMiddleBig" cx="48%" cy="42%" r="55%">
      <stop offset="0%" stop-color="#ffd54f"/>
      <stop offset="50%" stop-color="#ffca28"/>
      <stop offset="100%" stop-color="#e6a100"/>
    </radialGradient>
    <radialGradient id="coinInnerBig" cx="42%" cy="38%" r="58%">
      <stop offset="0%" stop-color="#ffffff"/>
      <stop offset="15%" stop-color="#fffde7"/>
      <stop offset="35%" stop-color="#fff59d"/>
      <stop offset="60%" stop-color="#ffd54f"/>
      <stop offset="85%" stop-color="#ffca28"/>
      <stop offset="100%" stop-color="#e6a100"/>
    </radialGradient>
    <radialGradient id="lensGlass" cx="38%" cy="32%" r="68%">
      <stop offset="0%" stop-color="#e0f2fe" stop-opacity="0.28"/>
      <stop offset="35%" stop-color="#7dd3fc" stop-opacity="0.14"/>
      <stop offset="70%" stop-color="#0369a1" stop-opacity="0.12"/>
      <stop offset="100%" stop-color="#0c4a6e" stop-opacity="0.22"/>
    </radialGradient>
    <linearGradient id="ringGrad" x1="10%" y1="0%" x2="90%" y2="100%">
      <stop offset="0%" stop-color="#f1f5f9"/>
      <stop offset="15%" stop-color="#e2e8f0"/>
      <stop offset="35%" stop-color="#cbd5e1"/>
      <stop offset="50%" stop-color="#94a3b8"/>
      <stop offset="70%" stop-color="#64748b"/>
      <stop offset="85%" stop-color="#475569"/>
      <stop offset="100%" stop-color="#334155"/>
    </linearGradient>
    <linearGradient id="ringInner" x1="90%" y1="100%" x2="10%" y2="0%">
      <stop offset="0%" stop-color="#cbd5e1" stop-opacity="0.6"/>
      <stop offset="50%" stop-color="#64748b" stop-opacity="0.3"/>
      <stop offset="100%" stop-color="#e2e8f0" stop-opacity="0.5"/>
    </linearGradient>
    <linearGradient id="ringHL" x1="0%" y1="0%" x2="100%" y2="100%">
      <stop offset="0%" stop-color="#ffffff" stop-opacity="1"/>
      <stop offset="100%" stop-color="#ffffff" stop-opacity="0"/>
    </linearGradient>
    <linearGradient id="handleGrad" x1="0%" y1="0%" x2="100%" y2="100%">
      <stop offset="0%" stop-color="#3f3f46"/>
      <stop offset="30%" stop-color="#27272a"/>
      <stop offset="70%" stop-color="#1c1c1e"/>
      <stop offset="100%" stop-color="#18181b"/>
    </linearGradient>
    <linearGradient id="handleShine" x1="0%" y1="0%" x2="100%" y2="100%">
      <stop offset="0%" stop-color="#ffffff" stop-opacity="0.25"/>
      <stop offset="100%" stop-color="#ffffff" stop-opacity="0"/>
    </linearGradient>
    <linearGradient id="connectorGrad" x1="0%" y1="0%" x2="100%" y2="100%">
      <stop offset="0%" stop-color="#e2e8f0"/>
      <stop offset="30%" stop-color="#cbd5e1"/>
      <stop offset="60%" stop-color="#94a3b8"/>
      <stop offset="100%" stop-color="#64748b"/>
    </linearGradient>
    <linearGradient id="gripGrad" x1="0%" y1="0%" x2="100%" y2="100%">
      <stop offset="0%" stop-color="#292524"/>
      <stop offset="50%" stop-color="#1c1917"/>
      <stop offset="100%" stop-color="#0c0a09"/>
    </linearGradient>
    <filter id="shadow" x="-20%" y="-20%" width="140%" height="140%">
      <feDropShadow dx="2" dy="4" stdDeviation="6" flood-color="#000" flood-opacity="0.45"/>
    </filter>
    <filter id="glow" x="-40%" y="-40%" width="180%" height="180%">
      <feGaussianBlur stdDeviation="4" result="blur"/>
      <feMerge><feMergeNode in="blur"/><feMergeNode in="SourceGraphic"/></feMerge>
    </filter>
    <filter id="softGlow" x="-30%" y="-30%" width="160%" height="160%">
      <feGaussianBlur stdDeviation="3" result="blur"/>
      <feMerge><feMergeNode in="blur"/><feMergeNode in="SourceGraphic"/></feMerge>
    </filter>
  </defs>

  <!-- Background -->
  <rect width="512" height="512" rx="108" ry="108" fill="url(#bg)"/>
  <radialGradient id="bgGlow" cx="40%" cy="35%" r="50%">
    <stop offset="0%" stop-color="#34d399" stop-opacity="0.08"/>
    <stop offset="100%" stop-color="#ffffff" stop-opacity="0"/>
  </radialGradient>
  <rect width="512" height="512" rx="108" ry="108" fill="url(#bgGlow)"/>

  <!-- ═══ MAGNIFYING GLASS — centered ═══ -->

  <!-- Handle shadow -->
  <line x1="310" y1="360" x2="450" y2="470" stroke="#000" stroke-width="40" stroke-linecap="round" opacity="0.25"/>
  <!-- Handle body -->
  <line x1="306" y1="356" x2="446" y2="466" stroke="#0a0a0a" stroke-width="38" stroke-linecap="round"/>
  <line x1="306" y1="356" x2="446" y2="466" stroke="url(#handleGrad)" stroke-width="34" stroke-linecap="round"/>
  <line x1="302" y1="360" x2="440" y2="464" stroke="url(#handleShine)" stroke-width="6" stroke-linecap="round"/>
  <!-- Handle end cap -->
  <circle cx="446" cy="466" r="18" fill="url(#gripGrad)"/>
  <circle cx="446" cy="466" r="18" fill="none" stroke="rgba(255,255,255,0.08)" stroke-width="2"/>
  <!-- Chrome connector -->
  <line x1="298" y1="350" x2="318" y2="362" stroke="#0f172a" stroke-width="42" stroke-linecap="butt"/>
  <line x1="298" y1="350" x2="318" y2="362" stroke="url(#connectorGrad)" stroke-width="38" stroke-linecap="butt"/>
  <line x1="298" y1="348" x2="312" y2="356" stroke="rgba(255,255,255,0.4)" stroke-width="6" stroke-linecap="round"/>

  <!-- Ring shadow -->
  <circle cx="210" cy="242" r="150" fill="rgba(0,0,0,0.3)"/>
  <!-- Ring -->
  <circle cx="206" cy="238" r="146" fill="none" stroke="#0f172a" stroke-width="8"/>
  <circle cx="206" cy="238" r="142" fill="none" stroke="url(#ringGrad)" stroke-width="26"/>
  <circle cx="206" cy="238" r="142" fill="none" stroke="url(#ringInner)" stroke-width="10"/>
  <circle cx="206" cy="238" r="142" fill="none" stroke="url(#ringHL)" stroke-width="14" stroke-dasharray="220 670" stroke-dashoffset="0" stroke-linecap="round"/>
  <circle cx="206" cy="238" r="142" fill="none" stroke="rgba(255,255,255,0.12)" stroke-width="6" stroke-dasharray="80 700" stroke-dashoffset="-320" stroke-linecap="round"/>
  <!-- Inner edge -->
  <circle cx="206" cy="238" r="129" fill="none" stroke="#1e293b" stroke-width="2.5"/>
  <circle cx="206" cy="238" r="127.5" fill="none" stroke="rgba(203,213,225,0.25)" stroke-width="1.5"/>

  <!-- Lens glass -->
  <circle cx="206" cy="238" r="126" fill="rgba(240,249,255,0.06)"/>
  <circle cx="206" cy="238" r="126" fill="url(#lensGlass)"/>

  <!-- Convex bulge effect -->
  <radialGradient id="lensMagnify" cx="46%" cy="44%" r="40%">
    <stop offset="0%" stop-color="#ffffff" stop-opacity="0.18"/>
    <stop offset="30%" stop-color="#e0f7fa" stop-opacity="0.1"/>
    <stop offset="60%" stop-color="#000000" stop-opacity="0"/>
    <stop offset="100%" stop-color="#000000" stop-opacity="0"/>
  </radialGradient>
  <circle cx="206" cy="238" r="126" fill="url(#lensMagnify)"/>
  <radialGradient id="lensEdgeDark" cx="50%" cy="50%" r="50%">
    <stop offset="0%" stop-color="#000000" stop-opacity="0"/>
    <stop offset="45%" stop-color="#000000" stop-opacity="0"/>
    <stop offset="65%" stop-color="#0c4a6e" stop-opacity="0.15"/>
    <stop offset="82%" stop-color="#0a3d5c" stop-opacity="0.35"/>
    <stop offset="95%" stop-color="#082f23" stop-opacity="0.55"/>
    <stop offset="100%" stop-color="#041f17" stop-opacity="0.7"/>
  </radialGradient>
  <circle cx="206" cy="238" r="126" fill="url(#lensEdgeDark)"/>

  <!-- Refraction arcs -->
  <path d="M110,185 Q155,162 210,170 Q250,176 268,195" fill="none" stroke="rgba(255,255,255,0.14)" stroke-width="22" stroke-linecap="round"/>
  <path d="M128,196 Q165,178 214,184 Q244,190 258,204" fill="none" stroke="rgba(255,255,255,0.07)" stroke-width="10" stroke-linecap="round"/>
  <circle cx="148" cy="182" r="8" fill="rgba(255,255,255,0.12)"/>
  <circle cx="146" cy="180" r="4" fill="rgba(255,255,255,0.22)"/>

  <!-- ═══ INSIDE LENS — coins + paper money ═══ -->
  <clipPath id="lensClip">
    <circle cx="206" cy="238" r="125"/>
  </clipPath>
  <g clip-path="url(#lensClip)">

    <!-- Warm glow behind content -->
    <radialGradient id="coinGlow" cx="50%" cy="55%" r="50%">
      <stop offset="0%" stop-color="#ffd54f" stop-opacity="0.18"/>
      <stop offset="60%" stop-color="#ffca28" stop-opacity="0.06"/>
      <stop offset="100%" stop-color="#f59e0b" stop-opacity="0"/>
    </radialGradient>
    <circle cx="206" cy="250" r="100" fill="url(#coinGlow)"/>

    <!-- ═══ MONEY TRAIL — dotted path from bill to coins (tracing where money goes) ═══ -->
    <!-- Trail glow behind -->
    <path d="M220,195 Q260,220 245,255 Q230,280 195,290 Q160,295 155,275" fill="none"
          stroke="#f59e0b" stroke-width="10" stroke-linecap="round"
          stroke-dasharray="8,8" opacity="0.1" filter="url(#glow)"/>
    <!-- Main trail -->
    <path d="M220,195 Q260,220 245,255 Q230,280 195,290 Q160,295 155,275" fill="none"
          stroke="#ffd54f" stroke-width="3.5" stroke-linecap="round"
          stroke-dasharray="7,6" opacity="0.55"/>
    <!-- Second trail (bill to right stack) -->
    <path d="M225,200 Q270,230 260,265 Q250,290 235,295" fill="none"
          stroke="#ffca28" stroke-width="2.5" stroke-linecap="round"
          stroke-dasharray="5,7" opacity="0.4"/>

    <!-- Arrow heads along the trail showing direction -->
    <!-- Arrow 1 (mid-trail, pointing down-left) -->
    <g transform="translate(252,242) rotate(120)">
      <polygon points="0,-5 4,3 -4,3" fill="#ffd54f" opacity="0.6"/>
    </g>
    <!-- Arrow 2 (near left stack) -->
    <g transform="translate(178,292) rotate(160)">
      <polygon points="0,-5 4,3 -4,3" fill="#ffd54f" opacity="0.5"/>
    </g>
    <!-- Arrow 3 (near right stack) -->
    <g transform="translate(255,278) rotate(140)">
      <polygon points="0,-4 3.5,2.5 -3.5,2.5" fill="#ffca28" opacity="0.45"/>
    </g>

    <!-- Small ₱ symbols along trail -->
    <text x="248" y="228" font-family="Arial" font-weight="700" font-size="8" fill="#ffd54f" opacity="0.4" text-anchor="middle">₱</text>
    <text x="202" y="292" font-family="Arial" font-weight="700" font-size="7" fill="#ffd54f" opacity="0.35" text-anchor="middle">₱</text>
    <text x="260" y="260" font-family="Arial" font-weight="700" font-size="6" fill="#ffca28" opacity="0.3" text-anchor="middle">₱</text>

    <!-- ═══ PAPER MONEY (behind coins, tilted) ═══ -->
    <g transform="translate(178,220) rotate(-12)" filter="url(#shadow)">
      <rect x="-58" y="-32" width="116" height="64" rx="8" fill="url(#billGrad)"/>
      <rect x="-58" y="-32" width="116" height="64" rx="8" fill="none" stroke="#fbbf24" stroke-width="2" opacity="0.7"/>
      <rect x="-58" y="-32" width="116" height="32" rx="8" fill="url(#billShine)"/>
      <rect x="-48" y="-22" width="96" height="44" rx="5" fill="none" stroke="rgba(255,255,255,0.2)" stroke-width="1"/>
      <circle cx="0" cy="0" r="20" fill="rgba(255,255,255,0.08)" stroke="rgba(255,255,255,0.25)" stroke-width="1.5"/>
      <text x="0" y="8" font-family="'Arial Black',Arial,sans-serif" font-weight="900" font-size="24" fill="white" fill-opacity="0.9" text-anchor="middle">₱</text>
    </g>

    <!-- Second bill (peeking behind, different angle) -->
    <g transform="translate(230,230) rotate(8)" opacity="0.7">
      <rect x="-54" y="-30" width="108" height="60" rx="7" fill="#16a34a"/>
      <rect x="-54" y="-30" width="108" height="60" rx="7" fill="none" stroke="#fbbf24" stroke-width="1.5" opacity="0.5"/>
      <circle cx="0" cy="0" r="18" fill="rgba(255,255,255,0.06)" stroke="rgba(255,255,255,0.15)" stroke-width="1"/>
      <text x="0" y="7" font-family="'Arial Black',Arial,sans-serif" font-weight="900" font-size="20" fill="white" fill-opacity="0.6" text-anchor="middle">₱</text>
    </g>

    <!-- ═══ COIN STACK 1 (left, 5 layers) ═══ -->
    <g transform="translate(150,272)">
      <!-- 5 layers -->
      <ellipse cy="28" rx="28" ry="9" fill="#a06000"/>
      <rect x="-28" y="21" width="56" height="7" fill="url(#stackEdge)"/>
      <line x1="-25" y1="21" x2="-25" y2="28" stroke="#e6a100" stroke-width="2" opacity="0.5"/><line x1="-19" y1="21" x2="-19" y2="28" stroke="#e6a100" stroke-width="2" opacity="0.5"/><line x1="-13" y1="21" x2="-13" y2="28" stroke="#e6a100" stroke-width="2" opacity="0.5"/><line x1="-7" y1="21" x2="-7" y2="28" stroke="#e6a100" stroke-width="2" opacity="0.5"/><line x1="-1" y1="21" x2="-1" y2="28" stroke="#e6a100" stroke-width="2" opacity="0.5"/><line x1="5" y1="21" x2="5" y2="28" stroke="#e6a100" stroke-width="2" opacity="0.5"/><line x1="11" y1="21" x2="11" y2="28" stroke="#e6a100" stroke-width="2" opacity="0.5"/><line x1="17" y1="21" x2="17" y2="28" stroke="#e6a100" stroke-width="2" opacity="0.5"/><line x1="23" y1="21" x2="23" y2="28" stroke="#e6a100" stroke-width="2" opacity="0.5"/>
      <ellipse cy="21" rx="28" ry="9" fill="#ffb300"/>

      <ellipse cy="17" rx="28" ry="9" fill="#a06000"/>
      <rect x="-28" y="10" width="56" height="7" fill="url(#stackEdge)"/>
      <line x1="-25" y1="10" x2="-25" y2="17" stroke="#e6a100" stroke-width="2" opacity="0.5"/><line x1="-19" y1="10" x2="-19" y2="17" stroke="#e6a100" stroke-width="2" opacity="0.5"/><line x1="-13" y1="10" x2="-13" y2="17" stroke="#e6a100" stroke-width="2" opacity="0.5"/><line x1="-7" y1="10" x2="-7" y2="17" stroke="#e6a100" stroke-width="2" opacity="0.5"/><line x1="-1" y1="10" x2="-1" y2="17" stroke="#e6a100" stroke-width="2" opacity="0.5"/><line x1="5" y1="10" x2="5" y2="17" stroke="#e6a100" stroke-width="2" opacity="0.5"/><line x1="11" y1="10" x2="11" y2="17" stroke="#e6a100" stroke-width="2" opacity="0.5"/><line x1="17" y1="10" x2="17" y2="17" stroke="#e6a100" stroke-width="2" opacity="0.5"/><line x1="23" y1="10" x2="23" y2="17" stroke="#e6a100" stroke-width="2" opacity="0.5"/>
      <ellipse cy="10" rx="28" ry="9" fill="#ffb300"/>

      <ellipse cy="6" rx="28" ry="9" fill="#a06000"/>
      <rect x="-28" y="-1" width="56" height="7" fill="url(#stackEdge)"/>
      <line x1="-25" y1="-1" x2="-25" y2="6" stroke="#e6a100" stroke-width="2" opacity="0.5"/><line x1="-19" y1="-1" x2="-19" y2="6" stroke="#e6a100" stroke-width="2" opacity="0.5"/><line x1="-13" y1="-1" x2="-13" y2="6" stroke="#e6a100" stroke-width="2" opacity="0.5"/><line x1="-7" y1="-1" x2="-7" y2="6" stroke="#e6a100" stroke-width="2" opacity="0.5"/><line x1="-1" y1="-1" x2="-1" y2="6" stroke="#e6a100" stroke-width="2" opacity="0.5"/><line x1="5" y1="-1" x2="5" y2="6" stroke="#e6a100" stroke-width="2" opacity="0.5"/><line x1="11" y1="-1" x2="11" y2="6" stroke="#e6a100" stroke-width="2" opacity="0.5"/><line x1="17" y1="-1" x2="17" y2="6" stroke="#e6a100" stroke-width="2" opacity="0.5"/><line x1="23" y1="-1" x2="23" y2="6" stroke="#e6a100" stroke-width="2" opacity="0.5"/>
      <ellipse cy="-1" rx="28" ry="9" fill="#ffb300"/>

      <ellipse cy="-5" rx="28" ry="9" fill="#a06000"/>
      <rect x="-28" y="-12" width="56" height="7" fill="url(#stackEdge)"/>
      <line x1="-25" y1="-12" x2="-25" y2="-5" stroke="#e6a100" stroke-width="2" opacity="0.5"/><line x1="-19" y1="-12" x2="-19" y2="-5" stroke="#e6a100" stroke-width="2" opacity="0.5"/><line x1="-13" y1="-12" x2="-13" y2="-5" stroke="#e6a100" stroke-width="2" opacity="0.5"/><line x1="-7" y1="-12" x2="-7" y2="-5" stroke="#e6a100" stroke-width="2" opacity="0.5"/><line x1="-1" y1="-12" x2="-1" y2="-5" stroke="#e6a100" stroke-width="2" opacity="0.5"/><line x1="5" y1="-12" x2="5" y2="-5" stroke="#e6a100" stroke-width="2" opacity="0.5"/><line x1="11" y1="-12" x2="11" y2="-5" stroke="#e6a100" stroke-width="2" opacity="0.5"/><line x1="17" y1="-12" x2="17" y2="-5" stroke="#e6a100" stroke-width="2" opacity="0.5"/><line x1="23" y1="-12" x2="23" y2="-5" stroke="#e6a100" stroke-width="2" opacity="0.5"/>
      <ellipse cy="-12" rx="28" ry="9" fill="#ffb300"/>

      <!-- Top coin face -->
      <ellipse cy="-16" rx="28" ry="9" fill="#a06000"/>
      <rect x="-28" y="-23" width="56" height="7" fill="url(#stackEdge)"/>
      <line x1="-25" y1="-23" x2="-25" y2="-16" stroke="#e6a100" stroke-width="2" opacity="0.5"/><line x1="-19" y1="-23" x2="-19" y2="-16" stroke="#e6a100" stroke-width="2" opacity="0.5"/><line x1="-13" y1="-23" x2="-13" y2="-16" stroke="#e6a100" stroke-width="2" opacity="0.5"/><line x1="-7" y1="-23" x2="-7" y2="-16" stroke="#e6a100" stroke-width="2" opacity="0.5"/><line x1="-1" y1="-23" x2="-1" y2="-16" stroke="#e6a100" stroke-width="2" opacity="0.5"/><line x1="5" y1="-23" x2="5" y2="-16" stroke="#e6a100" stroke-width="2" opacity="0.5"/><line x1="11" y1="-23" x2="11" y2="-16" stroke="#e6a100" stroke-width="2" opacity="0.5"/><line x1="17" y1="-23" x2="17" y2="-16" stroke="#e6a100" stroke-width="2" opacity="0.5"/><line x1="23" y1="-23" x2="23" y2="-16" stroke="#e6a100" stroke-width="2" opacity="0.5"/>
      <ellipse cy="-23" rx="28" ry="9" fill="#ffc107"/>
      <ellipse cy="-23" rx="28" ry="9" fill="none" stroke="#a06000" stroke-width="1.8"/>
      <ellipse cy="-23" rx="21.5" ry="6.5" fill="#ffca28"/>
      <ellipse cy="-23" rx="16" ry="4.8" fill="#ffd54f"/>
      <text y="-20.5" font-family="'Arial Black',Arial,sans-serif" font-weight="900" font-size="7.5" fill="#8b5e00" text-anchor="middle">₱</text>
      <ellipse cx="-6" cy="-25.5" rx="9" ry="2.8" fill="rgba(255,255,255,0.3)"/>
    </g>

    <!-- ═══ COIN STACK 2 (right, 3 layers — shorter/lower) ═══ -->
    <g transform="translate(232,290)">
      <ellipse cy="17" rx="24" ry="8" fill="#a06000"/>
      <rect x="-24" y="11" width="48" height="6" fill="url(#stackEdge)"/>
      <line x1="-21" y1="11" x2="-21" y2="17" stroke="#e6a100" stroke-width="1.8" opacity="0.5"/><line x1="-15" y1="11" x2="-15" y2="17" stroke="#e6a100" stroke-width="1.8" opacity="0.5"/><line x1="-9" y1="11" x2="-9" y2="17" stroke="#e6a100" stroke-width="1.8" opacity="0.5"/><line x1="-3" y1="11" x2="-3" y2="17" stroke="#e6a100" stroke-width="1.8" opacity="0.5"/><line x1="3" y1="11" x2="3" y2="17" stroke="#e6a100" stroke-width="1.8" opacity="0.5"/><line x1="9" y1="11" x2="9" y2="17" stroke="#e6a100" stroke-width="1.8" opacity="0.5"/><line x1="15" y1="11" x2="15" y2="17" stroke="#e6a100" stroke-width="1.8" opacity="0.5"/><line x1="21" y1="11" x2="21" y2="17" stroke="#e6a100" stroke-width="1.8" opacity="0.5"/>
      <ellipse cy="11" rx="24" ry="8" fill="#ffb300"/>

      <ellipse cy="7" rx="24" ry="8" fill="#a06000"/>
      <rect x="-24" y="1" width="48" height="6" fill="url(#stackEdge)"/>
      <line x1="-21" y1="1" x2="-21" y2="7" stroke="#e6a100" stroke-width="1.8" opacity="0.5"/><line x1="-15" y1="1" x2="-15" y2="7" stroke="#e6a100" stroke-width="1.8" opacity="0.5"/><line x1="-9" y1="1" x2="-9" y2="7" stroke="#e6a100" stroke-width="1.8" opacity="0.5"/><line x1="-3" y1="1" x2="-3" y2="7" stroke="#e6a100" stroke-width="1.8" opacity="0.5"/><line x1="3" y1="1" x2="3" y2="7" stroke="#e6a100" stroke-width="1.8" opacity="0.5"/><line x1="9" y1="1" x2="9" y2="7" stroke="#e6a100" stroke-width="1.8" opacity="0.5"/><line x1="15" y1="1" x2="15" y2="7" stroke="#e6a100" stroke-width="1.8" opacity="0.5"/><line x1="21" y1="1" x2="21" y2="7" stroke="#e6a100" stroke-width="1.8" opacity="0.5"/>
      <ellipse cy="1" rx="24" ry="8" fill="#ffb300"/>

      <!-- Top coin face -->
      <ellipse cy="-3" rx="24" ry="8" fill="#a06000"/>
      <rect x="-24" y="-9" width="48" height="6" fill="url(#stackEdge)"/>
      <line x1="-21" y1="-9" x2="-21" y2="-3" stroke="#e6a100" stroke-width="1.8" opacity="0.5"/><line x1="-15" y1="-9" x2="-15" y2="-3" stroke="#e6a100" stroke-width="1.8" opacity="0.5"/><line x1="-9" y1="-9" x2="-9" y2="-3" stroke="#e6a100" stroke-width="1.8" opacity="0.5"/><line x1="-3" y1="-9" x2="-3" y2="-3" stroke="#e6a100" stroke-width="1.8" opacity="0.5"/><line x1="3" y1="-9" x2="3" y2="-3" stroke="#e6a100" stroke-width="1.8" opacity="0.5"/><line x1="9" y1="-9" x2="9" y2="-3" stroke="#e6a100" stroke-width="1.8" opacity="0.5"/><line x1="15" y1="-9" x2="15" y2="-3" stroke="#e6a100" stroke-width="1.8" opacity="0.5"/><line x1="21" y1="-9" x2="21" y2="-3" stroke="#e6a100" stroke-width="1.8" opacity="0.5"/>
      <ellipse cy="-9" rx="24" ry="8" fill="#ffc107"/>
      <ellipse cy="-9" rx="24" ry="8" fill="none" stroke="#a06000" stroke-width="1.5"/>
      <ellipse cy="-9" rx="18.5" ry="5.8" fill="#ffca28"/>
      <ellipse cy="-9" rx="14" ry="4.2" fill="#ffd54f"/>
      <text y="-6.8" font-family="'Arial Black',Arial,sans-serif" font-weight="900" font-size="6.5" fill="#8b5e00" text-anchor="middle">₱</text>
      <ellipse cx="-5" cy="-11.5" rx="7.5" ry="2.3" fill="rgba(255,255,255,0.28)"/>
    </g>

    <!-- ═══ FRONT FACE-UP COIN (overlapping both stacks) ═══ -->
    <g transform="translate(260,286)">
      <circle r="30" fill="url(#coinOuterBig)"/>
      <circle r="30" fill="none" stroke="#8b5e00" stroke-width="3"/>
      <circle r="24.5" fill="url(#coinMiddleBig)"/>
      <circle r="19" fill="url(#coinInnerBig)"/>
      <text y="7.5" font-family="'Arial Black',Arial,sans-serif" font-weight="900" font-size="24" fill="#8b5e00" text-anchor="middle">₱</text>
      <path d="M-11,-15 A19,19,0,0,1,14,-10" fill="none" stroke="rgba(255,255,255,0.45)" stroke-width="4" stroke-linecap="round"/>
      <circle cx="-6" cy="-11" r="4" fill="white" opacity="0.35"/>
    </g>


    <!-- Lens glare -->
    <ellipse cx="160" cy="180" rx="30" ry="13" fill="rgba(255,255,255,0.14)" transform="rotate(-32,160,180)"/>
  </g>

  <!-- Glass surface glare arcs -->
  <path d="M100,182 a120,120,0,0,1,110,-44" fill="none" stroke="rgba(255,255,255,0.35)" stroke-width="5" stroke-linecap="round"/>
  <path d="M116,194 a100,100,0,0,1,60,-26" fill="none" stroke="rgba(255,255,255,0.14)" stroke-width="3" stroke-linecap="round"/>
  <circle cx="130" cy="172" r="5" fill="white" opacity="0.3" filter="url(#softGlow)"/>

  <!-- ═══ TRACES OUTSIDE THE LENS — trail extends beyond the glass ═══ -->
  <!-- Trail from top-left (stops before touching the glass) -->
  <path d="M58,52 Q82,72 92,100 Q100,125 98,148" fill="none"
        stroke="#ffd54f" stroke-width="4" stroke-linecap="round"
        stroke-dasharray="7,6" opacity="0.55"/>
  <path d="M44,66 Q70,88 80,115 Q88,138 86,158" fill="none"
        stroke="#ffca28" stroke-width="2.5" stroke-linecap="round"
        stroke-dasharray="5,7" opacity="0.4"/>
  <g transform="translate(96,130) rotate(170)">
    <polygon points="0,-5.5 4.5,3 -4.5,3" fill="#ffd54f" opacity="0.6"/>
  </g>
  <text x="72" y="78" font-family="Arial" font-weight="700" font-size="14" fill="#ffd54f" opacity="0.5" text-anchor="middle">₱</text>
  <g transform="translate(90,108)">
    <circle r="8" fill="#e6a100" opacity="0.6"/>
    <circle r="8" fill="none" stroke="#b8860b" stroke-width="1.2" opacity="0.5"/>
    <circle r="6" fill="#ffca28" opacity="0.6"/>
    <text y="2.5" font-family="'Arial Black',Arial,sans-serif" font-weight="900" font-size="7" fill="#8b5e00" opacity="0.5" text-anchor="middle">₱</text>
  </g>

  <!-- Trail from top-right (stops before touching the glass) -->
  <path d="M406,46 Q380,76 366,108 Q354,136 348,158" fill="none"
        stroke="#ffd54f" stroke-width="4" stroke-linecap="round"
        stroke-dasharray="7,6" opacity="0.5"/>
  <path d="M420,60 Q396,88 382,118 Q370,144 364,164" fill="none"
        stroke="#ffca28" stroke-width="2.5" stroke-linecap="round"
        stroke-dasharray="5,7" opacity="0.35"/>
  <g transform="translate(352,140) rotate(165)">
    <polygon points="0,-5.5 4.5,3 -4.5,3" fill="#ffd54f" opacity="0.55"/>
  </g>
  <text x="392" y="68" font-family="Arial" font-weight="700" font-size="14" fill="#ffd54f" opacity="0.45" text-anchor="middle">₱</text>
  <g transform="translate(370,116)">
    <circle r="8" fill="#e6a100" opacity="0.55"/>
    <circle r="8" fill="none" stroke="#b8860b" stroke-width="1.2" opacity="0.45"/>
    <circle r="6" fill="#ffca28" opacity="0.55"/>
    <text y="2.5" font-family="'Arial Black',Arial,sans-serif" font-weight="900" font-size="7" fill="#8b5e00" opacity="0.45" text-anchor="middle">₱</text>
  </g>

  <!-- Trail from bottom-left (stops before touching the glass) -->
  <path d="M46,410 Q72,392 96,368 Q114,348 124,330" fill="none"
        stroke="#ffd54f" stroke-width="3.5" stroke-linecap="round"
        stroke-dasharray="6,6" opacity="0.45"/>
  <g transform="translate(112,350) rotate(-40)">
    <polygon points="0,-5 4,2.5 -4,2.5" fill="#ffd54f" opacity="0.5"/>
  </g>
  <text x="62" y="404" font-family="Arial" font-weight="700" font-size="13" fill="#ffd54f" opacity="0.4" text-anchor="middle">₱</text>
  <g transform="translate(92,374)">
    <circle r="7" fill="#e6a100" opacity="0.5"/>
    <circle r="7" fill="none" stroke="#b8860b" stroke-width="1" opacity="0.4"/>
    <circle r="5.5" fill="#ffca28" opacity="0.5"/>
    <text y="2.2" font-family="'Arial Black',Arial,sans-serif" font-weight="900" font-size="6" fill="#8b5e00" opacity="0.4" text-anchor="middle">₱</text>
  </g>
</svg>
