<svg xmlns="http://www.w3.org/2000/svg" viewBox="0 0 512 512">
  <defs>
    <linearGradient id="bg" x1="0%" y1="0%" x2="100%" y2="100%">
      <stop offset="0%" stop-color="#082f23"/>
      <stop offset="45%" stop-color="#0f766e"/>
      <stop offset="100%" stop-color="#065f46"/>
    </linearGradient>
    <linearGradient id="billGrad" x1="0%" y1="0%" x2="100%" y2="100%">
      <stop offset="0%" stop-color="#86efac"/>
      <stop offset="50%" stop-color="#22c55e"/>
      <stop offset="100%" stop-color="#15803d"/>
    </linearGradient>
    <linearGradient id="traceGrad" x1="0%" y1="0%" x2="100%" y2="100%">
      <stop offset="0%" stop-color="#fde68a"/>
      <stop offset="100%" stop-color="#f59e0b"/>
    </linearGradient>
    <linearGradient id="billShine" x1="0%" y1="0%" x2="0%" y2="100%">
      <stop offset="0%" stop-color="#ffffff" stop-opacity="0.3"/>
      <stop offset="100%" stop-color="#ffffff" stop-opacity="0"/>
    </linearGradient>

    <!-- Coin top face — bright yellow gold -->
    <radialGradient id="coinTop" cx="45%" cy="40%" r="55%">
      <stop offset="0%" stop-color="#fff9c4"/>
      <stop offset="25%" stop-color="#ffe066"/>
      <stop offset="55%" stop-color="#ffc107"/>
      <stop offset="80%" stop-color="#e6a100"/>
      <stop offset="100%" stop-color="#c68600"/>
    </radialGradient>
    <!-- Coin top bigger -->
    <radialGradient id="coinTopBig" cx="45%" cy="40%" r="55%">
      <stop offset="0%" stop-color="#fffde7"/>
      <stop offset="20%" stop-color="#fff176"/>
      <stop offset="50%" stop-color="#ffc107"/>
      <stop offset="75%" stop-color="#e6a100"/>
      <stop offset="100%" stop-color="#b8860b"/>
    </radialGradient>
    <!-- Coin edge (side stripe) -->
    <linearGradient id="coinEdge" x1="0%" y1="0%" x2="0%" y2="100%">
      <stop offset="0%" stop-color="#d4a017"/>
      <stop offset="30%" stop-color="#b8860b"/>
      <stop offset="60%" stop-color="#8b6914"/>
      <stop offset="100%" stop-color="#6b4f0a"/>
    </linearGradient>

    <radialGradient id="lensGlass" cx="38%" cy="32%" r="68%">
      <stop offset="0%" stop-color="#e0f2fe" stop-opacity="0.28"/>
      <stop offset="35%" stop-color="#7dd3fc" stop-opacity="0.14"/>
      <stop offset="70%" stop-color="#0369a1" stop-opacity="0.12"/>
      <stop offset="100%" stop-color="#0c4a6e" stop-opacity="0.22"/>
    </radialGradient>
    <radialGradient id="lensVignette" cx="50%" cy="50%" r="50%">
      <stop offset="55%" stop-color="#000000" stop-opacity="0"/>
      <stop offset="100%" stop-color="#000000" stop-opacity="0.2"/>
    </radialGradient>
    <linearGradient id="ringGrad" x1="10%" y1="0%" x2="90%" y2="100%">
      <stop offset="0%" stop-color="#f1f5f9"/>
      <stop offset="15%" stop-color="#e2e8f0"/>
      <stop offset="35%" stop-color="#cbd5e1"/>
      <stop offset="50%" stop-color="#94a3b8"/>
      <stop offset="70%" stop-color="#64748b"/>
      <stop offset="85%" stop-color="#475569"/>
      <stop offset="100%" stop-color="#334155"/>
    </linearGradient>
    <linearGradient id="ringInner" x1="90%" y1="100%" x2="10%" y2="0%">
      <stop offset="0%" stop-color="#cbd5e1" stop-opacity="0.6"/>
      <stop offset="50%" stop-color="#64748b" stop-opacity="0.3"/>
      <stop offset="100%" stop-color="#e2e8f0" stop-opacity="0.5"/>
    </linearGradient>
    <linearGradient id="ringHL" x1="0%" y1="0%" x2="100%" y2="100%">
      <stop offset="0%" stop-color="#ffffff" stop-opacity="1"/>
      <stop offset="100%" stop-color="#ffffff" stop-opacity="0"/>
    </linearGradient>
    <linearGradient id="handleGrad" x1="0%" y1="0%" x2="100%" y2="100%">
      <stop offset="0%" stop-color="#3f3f46"/>
      <stop offset="30%" stop-color="#27272a"/>
      <stop offset="70%" stop-color="#1c1c1e"/>
      <stop offset="100%" stop-color="#18181b"/>
    </linearGradient>
    <linearGradient id="handleShine" x1="0%" y1="0%" x2="100%" y2="100%">
      <stop offset="0%" stop-color="#ffffff" stop-opacity="0.25"/>
      <stop offset="100%" stop-color="#ffffff" stop-opacity="0"/>
    </linearGradient>
    <linearGradient id="bandGrad" x1="0%" y1="0%" x2="0%" y2="100%">
      <stop offset="0%" stop-color="#fde68a"/>
      <stop offset="40%" stop-color="#fbbf24"/>
      <stop offset="70%" stop-color="#f59e0b"/>
      <stop offset="100%" stop-color="#b45309"/>
    </linearGradient>
    <linearGradient id="gripGrad" x1="0%" y1="0%" x2="100%" y2="100%">
      <stop offset="0%" stop-color="#292524"/>
      <stop offset="50%" stop-color="#1c1917"/>
      <stop offset="100%" stop-color="#0c0a09"/>
    </linearGradient>

    <filter id="shadow" x="-20%" y="-20%" width="140%" height="140%">
      <feDropShadow dx="2" dy="4" stdDeviation="7" flood-color="#000" flood-opacity="0.45"/>
    </filter>
    <filter id="glow" x="-40%" y="-40%" width="180%" height="180%">
      <feGaussianBlur stdDeviation="5" result="blur"/>
      <feMerge><feMergeNode in="blur"/><feMergeNode in="SourceGraphic"/></feMerge>
    </filter>
    <filter id="softGlow" x="-30%" y="-30%" width="160%" height="160%">
      <feGaussianBlur stdDeviation="3" result="blur"/>
      <feMerge><feMergeNode in="blur"/><feMergeNode in="SourceGraphic"/></feMerge>
    </filter>
    <filter id="coinShadow" x="-30%" y="-30%" width="160%" height="160%">
      <feDropShadow dx="1" dy="2" stdDeviation="2" flood-color="#000" flood-opacity="0.5"/>
    </filter>
  </defs>

  <!-- Background -->
  <rect width="512" height="512" rx="108" ry="108" fill="url(#bg)"/>
  <radialGradient id="bgGlow" cx="30%" cy="22%" r="50%">
    <stop offset="0%" stop-color="#34d399" stop-opacity="0.08"/>
    <stop offset="100%" stop-color="#ffffff" stop-opacity="0"/>
  </radialGradient>
  <rect width="512" height="512" rx="108" ry="108" fill="url(#bgGlow)"/>

  <!-- ═══ FLYING CASH BILL (small, top-right) ═══ -->
  <g transform="translate(370,72) rotate(-22) scale(0.62)">
    <path d="M-92,0 C-130,-32 -176,-36 -198,-14 C-174,-22 -130,-6 -108,8Z" fill="white" opacity="0.7"/>
    <path d="M-92,14 C-124,-8 -168,-6 -190,18 C-166,8 -126,18 -104,30Z" fill="white" opacity="0.45"/>
    <path d="M-92,26 C-116,14 -152,20 -170,40 C-150,28 -116,32 -100,44Z" fill="white" opacity="0.25"/>
    <path d="M92,0 C130,-32 176,-36 198,-14 C174,-22 130,-6 108,8Z" fill="white" opacity="0.7"/>
    <path d="M92,14 C124,-8 168,-6 190,18 C166,8 126,18 104,30Z" fill="white" opacity="0.45"/>
    <path d="M92,26 C116,14 152,20 170,40 C150,28 116,32 100,44Z" fill="white" opacity="0.25"/>
    <rect x="-86" y="-48" width="172" height="96" rx="13" fill="url(#billGrad)" filter="url(#shadow)"/>
    <rect x="-86" y="-48" width="172" height="96" rx="13" fill="none" stroke="#fbbf24" stroke-width="2.5" opacity="0.75"/>
    <rect x="-86" y="-48" width="172" height="48" rx="13" fill="url(#billShine)"/>
    <rect x="-72" y="-34" width="144" height="68" rx="8" fill="none" stroke="rgba(255,255,255,0.22)" stroke-width="1.5"/>
    <circle cx="0" cy="0" r="36" fill="rgba(255,255,255,0.1)" stroke="rgba(255,255,255,0.28)" stroke-width="2"/>
    <text x="0" y="15" font-family="'Arial Black',Arial,sans-serif" font-weight="900" font-size="44" fill="white" fill-opacity="0.95" text-anchor="middle">₱</text>
    <text x="-58" y="-26" font-family="Arial" font-weight="700" font-size="14" fill="rgba(255,255,255,0.7)">100</text>
    <text x="58" y="40" font-family="Arial" font-weight="700" font-size="14" fill="rgba(255,255,255,0.7)" text-anchor="end">100</text>
  </g>

  <!-- ═══ GOLDEN TRACES (5 lines) ═══ -->
  <path d="M330,108 Q290,180 248,268 Q220,320 200,340" fill="none" stroke="#f59e0b" stroke-width="16" stroke-linecap="round" stroke-dasharray="14,10" opacity="0.12" filter="url(#glow)"/>
  <path d="M332,106 Q292,178 250,266 Q222,318 202,338" fill="none" stroke="url(#traceGrad)" stroke-width="5" stroke-linecap="round" stroke-dasharray="13,9" filter="url(#softGlow)"/>
  <path d="M346,98 Q306,172 264,258 Q236,310 216,330" fill="none" stroke="rgba(253,230,138,0.5)" stroke-width="3.5" stroke-linecap="round" stroke-dasharray="10,11"/>
  <path d="M318,114 Q278,186 236,274 Q208,326 188,346" fill="none" stroke="rgba(251,191,36,0.35)" stroke-width="2.5" stroke-linecap="round" stroke-dasharray="8,13"/>
  <path d="M356,90 Q316,164 274,250 Q246,302 226,322" fill="none" stroke="rgba(253,230,138,0.25)" stroke-width="2" stroke-linecap="round" stroke-dasharray="6,14"/>
  <path d="M306,122 Q266,194 224,282 Q196,334 176,354" fill="none" stroke="rgba(251,191,36,0.18)" stroke-width="1.8" stroke-linecap="round" stroke-dasharray="5,15"/>

  <!-- ═══ COINS along trail (cartoon 3D style — thick edge with ridges) ═══ -->

  <!-- Coin 1 (near bill) -->
  <g transform="translate(310,148) rotate(-8)" filter="url(#coinShadow)">
    <!-- Thick coin edge (side) — dark gold with ridge lines -->
    <ellipse cx="0" cy="0" rx="12" ry="5" transform="translate(0,7)" fill="#8b6914"/>
    <ellipse cx="0" cy="0" rx="12" ry="5" transform="translate(0,6)" fill="#a07818"/>
    <ellipse cx="0" cy="0" rx="12" ry="5" transform="translate(0,5)" fill="url(#coinEdge)"/>
    <!-- Ridge lines on edge -->
    <line x1="-10" y1="5" x2="-10" y2="7" stroke="#6b4f0a" stroke-width="0.8"/>
    <line x1="-7" y1="5.5" x2="-7" y2="7.5" stroke="#6b4f0a" stroke-width="0.8"/>
    <line x1="-4" y1="5.8" x2="-4" y2="7.8" stroke="#6b4f0a" stroke-width="0.8"/>
    <line x1="-1" y1="6" x2="-1" y2="8" stroke="#6b4f0a" stroke-width="0.8"/>
    <line x1="2" y1="5.8" x2="2" y2="7.8" stroke="#6b4f0a" stroke-width="0.8"/>
    <line x1="5" y1="5.5" x2="5" y2="7.5" stroke="#6b4f0a" stroke-width="0.8"/>
    <line x1="8" y1="5" x2="8" y2="7" stroke="#6b4f0a" stroke-width="0.8"/>
    <!-- Top face -->
    <ellipse cx="0" cy="0" rx="12" ry="5" fill="url(#coinTop)"/>
    <!-- Rim -->
    <ellipse cx="0" cy="0" rx="12" ry="5" fill="none" stroke="#b8860b" stroke-width="1.5"/>
    <!-- Inner rim -->
    <ellipse cx="0" cy="0" rx="9" ry="3.5" fill="none" stroke="rgba(184,139,50,0.5)" stroke-width="0.7"/>
    <!-- ₱ sign -->
    <text y="2" font-family="'Arial Black',Arial,sans-serif" font-weight="900" font-size="6" fill="#6b4f0a" fill-opacity="0.9" text-anchor="middle">₱</text>
    <!-- Top shine arc -->
    <ellipse cx="-3" cy="-1.5" rx="6" ry="2" fill="rgba(255,255,255,0.35)" transform="rotate(-10)"/>
  </g>

  <!-- Coin 2 (middle) -->
  <g transform="translate(280,198) rotate(-5)" filter="url(#coinShadow)">
    <ellipse cx="0" cy="0" rx="10.5" ry="4.3" transform="translate(0,6)" fill="#8b6914"/>
    <ellipse cx="0" cy="0" rx="10.5" ry="4.3" transform="translate(0,5)" fill="#a07818"/>
    <ellipse cx="0" cy="0" rx="10.5" ry="4.3" transform="translate(0,4)" fill="url(#coinEdge)"/>
    <line x1="-8.5" y1="4" x2="-8.5" y2="6" stroke="#6b4f0a" stroke-width="0.7"/>
    <line x1="-5.5" y1="4.5" x2="-5.5" y2="6.5" stroke="#6b4f0a" stroke-width="0.7"/>
    <line x1="-2.5" y1="4.8" x2="-2.5" y2="6.8" stroke="#6b4f0a" stroke-width="0.7"/>
    <line x1="0.5" y1="5" x2="0.5" y2="7" stroke="#6b4f0a" stroke-width="0.7"/>
    <line x1="3.5" y1="4.8" x2="3.5" y2="6.8" stroke="#6b4f0a" stroke-width="0.7"/>
    <line x1="6.5" y1="4.5" x2="6.5" y2="6.5" stroke="#6b4f0a" stroke-width="0.7"/>
    <ellipse cx="0" cy="0" rx="10.5" ry="4.3" fill="url(#coinTop)"/>
    <ellipse cx="0" cy="0" rx="10.5" ry="4.3" fill="none" stroke="#b8860b" stroke-width="1.3"/>
    <ellipse cx="0" cy="0" rx="7.8" ry="3" fill="none" stroke="rgba(184,139,50,0.45)" stroke-width="0.6"/>
    <text y="1.8" font-family="'Arial Black',Arial,sans-serif" font-weight="900" font-size="5.5" fill="#6b4f0a" fill-opacity="0.9" text-anchor="middle">₱</text>
    <ellipse cx="-2.5" cy="-1.2" rx="5" ry="1.7" fill="rgba(255,255,255,0.3)" transform="rotate(-10)"/>
  </g>

  <!-- Coin 3 (lower, near glass) -->
  <g transform="translate(254,248) rotate(-3)" filter="url(#coinShadow)">
    <ellipse cx="0" cy="0" rx="8.5" ry="3.5" transform="translate(0,5)" fill="#8b6914"/>
    <ellipse cx="0" cy="0" rx="8.5" ry="3.5" transform="translate(0,4)" fill="#a07818"/>
    <ellipse cx="0" cy="0" rx="8.5" ry="3.5" transform="translate(0,3.2)" fill="url(#coinEdge)"/>
    <line x1="-6.5" y1="3.2" x2="-6.5" y2="5" stroke="#6b4f0a" stroke-width="0.6"/>
    <line x1="-3.5" y1="3.8" x2="-3.5" y2="5.5" stroke="#6b4f0a" stroke-width="0.6"/>
    <line x1="-0.5" y1="4" x2="-0.5" y2="5.7" stroke="#6b4f0a" stroke-width="0.6"/>
    <line x1="2.5" y1="3.8" x2="2.5" y2="5.5" stroke="#6b4f0a" stroke-width="0.6"/>
    <line x1="5.5" y1="3.2" x2="5.5" y2="5" stroke="#6b4f0a" stroke-width="0.6"/>
    <ellipse cx="0" cy="0" rx="8.5" ry="3.5" fill="url(#coinTop)"/>
    <ellipse cx="0" cy="0" rx="8.5" ry="3.5" fill="none" stroke="#b8860b" stroke-width="1.1"/>
    <ellipse cx="0" cy="0" rx="6.2" ry="2.4" fill="none" stroke="rgba(184,139,50,0.4)" stroke-width="0.5"/>
    <text y="1.5" font-family="'Arial Black',Arial,sans-serif" font-weight="900" font-size="4.5" fill="#6b4f0a" fill-opacity="0.9" text-anchor="middle">₱</text>
    <ellipse cx="-2" cy="-1" rx="4" ry="1.3" fill="rgba(255,255,255,0.28)" transform="rotate(-10)"/>
  </g>

  <!-- ═══ MAGNIFYING GLASS ═══ -->

  <!-- Handle -->
  <line x1="284" y1="396" x2="400" y2="464" stroke="#000" stroke-width="54" stroke-linecap="round" opacity="0.3"/>
  <line x1="280" y1="390" x2="398" y2="460" stroke="#0a0a0a" stroke-width="52" stroke-linecap="round"/>
  <line x1="280" y1="390" x2="398" y2="460" stroke="url(#handleGrad)" stroke-width="46" stroke-linecap="round"/>
  <line x1="330" y1="418" x2="338" y2="423" stroke="rgba(255,255,255,0.06)" stroke-width="2"/>
  <line x1="340" y1="424" x2="348" y2="429" stroke="rgba(255,255,255,0.06)" stroke-width="2"/>
  <line x1="350" y1="430" x2="358" y2="435" stroke="rgba(255,255,255,0.06)" stroke-width="2"/>
  <line x1="360" y1="436" x2="368" y2="441" stroke="rgba(255,255,255,0.06)" stroke-width="2"/>
  <line x1="370" y1="442" x2="378" y2="447" stroke="rgba(255,255,255,0.06)" stroke-width="2"/>
  <line x1="282" y1="394" x2="392" y2="456" stroke="url(#handleShine)" stroke-width="12" stroke-linecap="round"/>
  <circle cx="398" cy="460" r="24" fill="url(#gripGrad)"/>
  <circle cx="398" cy="460" r="24" fill="none" stroke="rgba(255,255,255,0.08)" stroke-width="2"/>

  <!-- Gold band -->
  <line x1="274" y1="385" x2="298" y2="399" stroke="#0a0a0a" stroke-width="52" stroke-linecap="butt"/>
  <line x1="274" y1="385" x2="298" y2="399" stroke="url(#bandGrad)" stroke-width="48" stroke-linecap="butt"/>
  <line x1="274" y1="383" x2="292" y2="393" stroke="rgba(255,255,255,0.3)" stroke-width="8" stroke-linecap="round"/>

  <!-- Ring -->
  <circle cx="198" cy="315" r="126" fill="rgba(0,0,0,0.35)"/>
  <circle cx="194" cy="310" r="122" fill="none" stroke="#0f172a" stroke-width="9"/>
  <circle cx="194" cy="310" r="118" fill="none" stroke="url(#ringGrad)" stroke-width="48"/>
  <circle cx="194" cy="310" r="118" fill="none" stroke="url(#ringInner)" stroke-width="16"/>
  <circle cx="194" cy="310" r="118" fill="none" stroke="url(#ringHL)" stroke-width="24" stroke-dasharray="190 560" stroke-dashoffset="0" stroke-linecap="round"/>
  <circle cx="194" cy="310" r="118" fill="none" stroke="rgba(255,255,255,0.15)" stroke-width="10" stroke-dasharray="70 680" stroke-dashoffset="-300" stroke-linecap="round"/>
  <circle cx="194" cy="310" r="94" fill="none" stroke="#0f172a" stroke-width="4.5"/>
  <circle cx="194" cy="310" r="92" fill="none" stroke="rgba(148,163,184,0.3)" stroke-width="2"/>

  <!-- Lens -->
  <circle cx="194" cy="310" r="90" fill="#0a3d5c" opacity="0.08"/>
  <circle cx="194" cy="310" r="90" fill="url(#lensGlass)"/>
  <circle cx="194" cy="310" r="90" fill="url(#lensVignette)"/>

  <!-- Magnified content inside lens -->
  <clipPath id="lensClip">
    <circle cx="194" cy="310" r="89"/>
  </clipPath>
  <g clip-path="url(#lensClip)">
    <!-- Magnified traces -->
    <path d="M136,268 Q172,306 222,350" fill="none" stroke="#fde68a" stroke-width="7" stroke-linecap="round" stroke-dasharray="16,9" filter="url(#glow)" opacity="0.7"/>
    <path d="M120,286 Q158,322 208,366" fill="none" stroke="rgba(253,230,138,0.4)" stroke-width="4.5" stroke-linecap="round" stroke-dasharray="12,11"/>
    <path d="M150,254 Q186,292 236,336" fill="none" stroke="rgba(251,191,36,0.28)" stroke-width="3.5" stroke-linecap="round" stroke-dasharray="9,12"/>
    <path d="M108,300 Q146,336 196,380" fill="none" stroke="rgba(253,230,138,0.18)" stroke-width="2.5" stroke-linecap="round" stroke-dasharray="7,13"/>
    <path d="M162,242 Q198,280 248,324" fill="none" stroke="rgba(251,191,36,0.12)" stroke-width="2" stroke-linecap="round" stroke-dasharray="6,14"/>

    <!-- Magnified coins (same cartoon 3D style — bigger) -->
    <!-- Big coin 1 -->
    <g transform="translate(148,278) rotate(-5)" filter="url(#glow)">
      <!-- Thick edge with ridges -->
      <ellipse rx="20" ry="9" cy="9" fill="#6b4f0a"/>
      <ellipse rx="20" ry="9" cy="7.5" fill="#8b6914"/>
      <ellipse rx="20" ry="9" cy="6" fill="url(#coinEdge)"/>
      <!-- Ridge lines -->
      <line x1="-17" y1="6" x2="-17" y2="9" stroke="#5a4008" stroke-width="1.2"/>
      <line x1="-13" y1="7" x2="-13" y2="10" stroke="#5a4008" stroke-width="1.2"/>
      <line x1="-9" y1="7.5" x2="-9" y2="10.5" stroke="#5a4008" stroke-width="1.2"/>
      <line x1="-5" y1="8" x2="-5" y2="11" stroke="#5a4008" stroke-width="1.2"/>
      <line x1="-1" y1="8.2" x2="-1" y2="11.2" stroke="#5a4008" stroke-width="1.2"/>
      <line x1="3" y1="8" x2="3" y2="11" stroke="#5a4008" stroke-width="1.2"/>
      <line x1="7" y1="7.5" x2="7" y2="10.5" stroke="#5a4008" stroke-width="1.2"/>
      <line x1="11" y1="7" x2="11" y2="10" stroke="#5a4008" stroke-width="1.2"/>
      <line x1="15" y1="6" x2="15" y2="9" stroke="#5a4008" stroke-width="1.2"/>
      <!-- Top face -->
      <ellipse rx="20" ry="9" fill="url(#coinTopBig)"/>
      <ellipse rx="20" ry="9" fill="none" stroke="#b8860b" stroke-width="2.2"/>
      <!-- Inner decorative rim -->
      <ellipse rx="15.5" ry="6.5" fill="none" stroke="rgba(180,130,30,0.5)" stroke-width="1"/>
      <!-- ₱ sign -->
      <text y="3.5" font-family="'Arial Black',Arial,sans-serif" font-weight="900" font-size="11" fill="#6b4f0a" fill-opacity="0.85" text-anchor="middle">₱</text>
      <!-- Shine -->
      <ellipse cx="-5" cy="-2.5" rx="9" ry="3.5" fill="rgba(255,255,255,0.35)" transform="rotate(-8)"/>
    </g>

    <!-- Big coin 2 -->
    <g transform="translate(186,314) rotate(-3)" filter="url(#glow)">
      <ellipse rx="17" ry="7.5" cy="7.5" fill="#6b4f0a"/>
      <ellipse rx="17" ry="7.5" cy="6" fill="#8b6914"/>
      <ellipse rx="17" ry="7.5" cy="5" fill="url(#coinEdge)"/>
      <line x1="-14" y1="5" x2="-14" y2="7.5" stroke="#5a4008" stroke-width="1"/>
      <line x1="-10" y1="5.8" x2="-10" y2="8.3" stroke="#5a4008" stroke-width="1"/>
      <line x1="-6" y1="6.3" x2="-6" y2="8.8" stroke="#5a4008" stroke-width="1"/>
      <line x1="-2" y1="6.5" x2="-2" y2="9" stroke="#5a4008" stroke-width="1"/>
      <line x1="2" y1="6.3" x2="2" y2="8.8" stroke="#5a4008" stroke-width="1"/>
      <line x1="6" y1="5.8" x2="6" y2="8.3" stroke="#5a4008" stroke-width="1"/>
      <line x1="10" y1="5" x2="10" y2="7.5" stroke="#5a4008" stroke-width="1"/>
      <ellipse rx="17" ry="7.5" fill="url(#coinTopBig)"/>
      <ellipse rx="17" ry="7.5" fill="none" stroke="#b8860b" stroke-width="1.8"/>
      <ellipse rx="13" ry="5.5" fill="none" stroke="rgba(180,130,30,0.45)" stroke-width="0.9"/>
      <text y="3" font-family="'Arial Black',Arial,sans-serif" font-weight="900" font-size="9.5" fill="#6b4f0a" fill-opacity="0.85" text-anchor="middle">₱</text>
      <ellipse cx="-4" cy="-2" rx="7.5" ry="3" fill="rgba(255,255,255,0.32)" transform="rotate(-8)"/>
    </g>

    <!-- Big coin 3 -->
    <g transform="translate(220,346) rotate(-2)" filter="url(#softGlow)">
      <ellipse rx="14" ry="6" cy="6.5" fill="#6b4f0a"/>
      <ellipse rx="14" ry="6" cy="5" fill="#8b6914"/>
      <ellipse rx="14" ry="6" cy="4" fill="url(#coinEdge)"/>
      <line x1="-11" y1="4" x2="-11" y2="6.5" stroke="#5a4008" stroke-width="0.9"/>
      <line x1="-7" y1="4.8" x2="-7" y2="7.3" stroke="#5a4008" stroke-width="0.9"/>
      <line x1="-3" y1="5.2" x2="-3" y2="7.7" stroke="#5a4008" stroke-width="0.9"/>
      <line x1="1" y1="5.2" x2="1" y2="7.7" stroke="#5a4008" stroke-width="0.9"/>
      <line x1="5" y1="4.8" x2="5" y2="7.3" stroke="#5a4008" stroke-width="0.9"/>
      <line x1="9" y1="4" x2="9" y2="6.5" stroke="#5a4008" stroke-width="0.9"/>
      <ellipse rx="14" ry="6" fill="url(#coinTopBig)"/>
      <ellipse rx="14" ry="6" fill="none" stroke="#b8860b" stroke-width="1.5"/>
      <ellipse rx="10.5" ry="4.3" fill="none" stroke="rgba(180,130,30,0.4)" stroke-width="0.7"/>
      <text y="2.5" font-family="'Arial Black',Arial,sans-serif" font-weight="900" font-size="8" fill="#6b4f0a" fill-opacity="0.85" text-anchor="middle">₱</text>
      <ellipse cx="-3.5" cy="-1.5" rx="6" ry="2.3" fill="rgba(255,255,255,0.28)" transform="rotate(-8)"/>
    </g>

    <!-- Lens glare inside -->
    <ellipse cx="152" cy="260" rx="32" ry="14" fill="rgba(255,255,255,0.2)" transform="rotate(-32,152,260)"/>
  </g>

  <!-- Glass reflections -->
  <path d="M108,248 a104,104,0,0,1,100,-40" fill="none" stroke="rgba(255,255,255,0.6)" stroke-width="9" stroke-linecap="round"/>
  <path d="M124,262 a88,88,0,0,1,64,-30" fill="none" stroke="rgba(255,255,255,0.22)" stroke-width="5" stroke-linecap="round"/>
  <circle cx="140" cy="242" r="6" fill="white" opacity="0.45" filter="url(#softGlow)"/>
</svg>
