<svg xmlns="http://www.w3.org/2000/svg" viewBox="0 0 512 512">
  <defs>
    <linearGradient id="bg" x1="0%" y1="0%" x2="100%" y2="100%">
      <stop offset="0%" stop-color="#082f23"/>
      <stop offset="45%" stop-color="#0f766e"/>
      <stop offset="100%" stop-color="#065f46"/>
    </linearGradient>
    <linearGradient id="billGrad" x1="0%" y1="0%" x2="100%" y2="100%">
      <stop offset="0%" stop-color="#86efac"/>
      <stop offset="50%" stop-color="#22c55e"/>
      <stop offset="100%" stop-color="#15803d"/>
    </linearGradient>
    <linearGradient id="traceGrad" x1="0%" y1="0%" x2="100%" y2="100%">
      <stop offset="0%" stop-color="#fde68a"/>
      <stop offset="100%" stop-color="#f59e0b"/>
    </linearGradient>
    <linearGradient id="billShine" x1="0%" y1="0%" x2="0%" y2="100%">
      <stop offset="0%" stop-color="#ffffff" stop-opacity="0.32"/>
      <stop offset="100%" stop-color="#ffffff" stop-opacity="0"/>
    </linearGradient>
    <radialGradient id="coinOuter" cx="50%" cy="45%" r="55%">
      <stop offset="0%" stop-color="#ffca28"/>
      <stop offset="60%" stop-color="#e6a100"/>
      <stop offset="100%" stop-color="#b8860b"/>
    </radialGradient>
    <radialGradient id="coinMiddle" cx="48%" cy="42%" r="55%">
      <stop offset="0%" stop-color="#ffd54f"/>
      <stop offset="50%" stop-color="#ffca28"/>
      <stop offset="100%" stop-color="#e6a100"/>
    </radialGradient>
    <radialGradient id="coinInner" cx="45%" cy="40%" r="55%">
      <stop offset="0%" stop-color="#ffffff"/>
      <stop offset="20%" stop-color="#fff9c4"/>
      <stop offset="60%" stop-color="#ffd54f"/>
      <stop offset="100%" stop-color="#ffca28"/>
    </radialGradient>
    <linearGradient id="stackEdge" x1="0%" y1="0%" x2="0%" y2="100%">
      <stop offset="0%" stop-color="#ffd54f"/>
      <stop offset="50%" stop-color="#ffca28"/>
      <stop offset="100%" stop-color="#e6a100"/>
    </linearGradient>
    <radialGradient id="coinOuterBig" cx="50%" cy="45%" r="55%">
      <stop offset="0%" stop-color="#ffca28"/>
      <stop offset="60%" stop-color="#e6a100"/>
      <stop offset="100%" stop-color="#b8860b"/>
    </radialGradient>
    <radialGradient id="coinMiddleBig" cx="48%" cy="42%" r="55%">
      <stop offset="0%" stop-color="#ffd54f"/>
      <stop offset="50%" stop-color="#ffca28"/>
      <stop offset="100%" stop-color="#e6a100"/>
    </radialGradient>
    <radialGradient id="coinInnerBig" cx="42%" cy="38%" r="58%">
      <stop offset="0%" stop-color="#ffffff"/>
      <stop offset="15%" stop-color="#fffde7"/>
      <stop offset="35%" stop-color="#fff59d"/>
      <stop offset="60%" stop-color="#ffd54f"/>
      <stop offset="85%" stop-color="#ffca28"/>
      <stop offset="100%" stop-color="#e6a100"/>
    </radialGradient>
    <radialGradient id="lensGlass" cx="38%" cy="32%" r="68%">
      <stop offset="0%" stop-color="#e0f2fe" stop-opacity="0.28"/>
      <stop offset="35%" stop-color="#7dd3fc" stop-opacity="0.14"/>
      <stop offset="70%" stop-color="#0369a1" stop-opacity="0.12"/>
      <stop offset="100%" stop-color="#0c4a6e" stop-opacity="0.22"/>
    </radialGradient>
    <radialGradient id="lensVignette" cx="50%" cy="50%" r="50%">
      <stop offset="55%" stop-color="#000000" stop-opacity="0"/>
      <stop offset="100%" stop-color="#000000" stop-opacity="0.2"/>
    </radialGradient>
    <linearGradient id="ringGrad" x1="10%" y1="0%" x2="90%" y2="100%">
      <stop offset="0%" stop-color="#f1f5f9"/>
      <stop offset="15%" stop-color="#e2e8f0"/>
      <stop offset="35%" stop-color="#cbd5e1"/>
      <stop offset="50%" stop-color="#94a3b8"/>
      <stop offset="70%" stop-color="#64748b"/>
      <stop offset="85%" stop-color="#475569"/>
      <stop offset="100%" stop-color="#334155"/>
    </linearGradient>
    <linearGradient id="ringInner" x1="90%" y1="100%" x2="10%" y2="0%">
      <stop offset="0%" stop-color="#cbd5e1" stop-opacity="0.6"/>
      <stop offset="50%" stop-color="#64748b" stop-opacity="0.3"/>
      <stop offset="100%" stop-color="#e2e8f0" stop-opacity="0.5"/>
    </linearGradient>
    <linearGradient id="ringHL" x1="0%" y1="0%" x2="100%" y2="100%">
      <stop offset="0%" stop-color="#ffffff" stop-opacity="1"/>
      <stop offset="100%" stop-color="#ffffff" stop-opacity="0"/>
    </linearGradient>
    <linearGradient id="handleGrad" x1="0%" y1="0%" x2="100%" y2="100%">
      <stop offset="0%" stop-color="#3f3f46"/>
      <stop offset="30%" stop-color="#27272a"/>
      <stop offset="70%" stop-color="#1c1c1e"/>
      <stop offset="100%" stop-color="#18181b"/>
    </linearGradient>
    <linearGradient id="handleShine" x1="0%" y1="0%" x2="100%" y2="100%">
      <stop offset="0%" stop-color="#ffffff" stop-opacity="0.25"/>
      <stop offset="100%" stop-color="#ffffff" stop-opacity="0"/>
    </linearGradient>
    <linearGradient id="bandGrad" x1="0%" y1="0%" x2="0%" y2="100%">
      <stop offset="0%" stop-color="#fde68a"/>
      <stop offset="40%" stop-color="#fbbf24"/>
      <stop offset="70%" stop-color="#f59e0b"/>
      <stop offset="100%" stop-color="#b45309"/>
    </linearGradient>
    <linearGradient id="gripGrad" x1="0%" y1="0%" x2="100%" y2="100%">
      <stop offset="0%" stop-color="#292524"/>
      <stop offset="50%" stop-color="#1c1917"/>
      <stop offset="100%" stop-color="#0c0a09"/>
    </linearGradient>
    <filter id="shadow" x="-20%" y="-20%" width="140%" height="140%">
      <feDropShadow dx="2" dy="4" stdDeviation="6" flood-color="#000" flood-opacity="0.45"/>
    </filter>
    <filter id="glow" x="-40%" y="-40%" width="180%" height="180%">
      <feGaussianBlur stdDeviation="4" result="blur"/>
      <feMerge><feMergeNode in="blur"/><feMergeNode in="SourceGraphic"/></feMerge>
    </filter>
    <filter id="softGlow" x="-30%" y="-30%" width="160%" height="160%">
      <feGaussianBlur stdDeviation="3" result="blur"/>
      <feMerge><feMergeNode in="blur"/><feMergeNode in="SourceGraphic"/></feMerge>
    </filter>
    <filter id="coinShadow" x="-30%" y="-30%" width="160%" height="160%">
      <feDropShadow dx="1" dy="2" stdDeviation="2" flood-color="#000" flood-opacity="0.4"/>
    </filter>
  </defs>

  <!-- Background -->
  <rect width="512" height="512" rx="108" ry="108" fill="url(#bg)"/>
  <radialGradient id="bgGlow" cx="30%" cy="22%" r="50%">
    <stop offset="0%" stop-color="#34d399" stop-opacity="0.08"/>
    <stop offset="100%" stop-color="#ffffff" stop-opacity="0"/>
  </radialGradient>
  <rect width="512" height="512" rx="108" ry="108" fill="url(#bgGlow)"/>

  <!-- ═══ STACKED BILLS (3 widely fanned, bigger, flying away) ═══ -->
  <g transform="translate(350,58) rotate(-18) scale(0.68)" filter="url(#shadow)">
    <!-- Wings on the stack -->
    <path d="M-90,0 C-126,-30 -170,-34 -192,-14 C-170,-20 -128,-6 -106,8Z" fill="white" opacity="0.65"/>
    <path d="M-90,14 C-120,-6 -164,-4 -186,18 C-162,8 -122,18 -100,30Z" fill="white" opacity="0.4"/>
    <path d="M90,0 C126,-30 170,-34 192,-14 C170,-20 128,-6 106,8Z" fill="white" opacity="0.65"/>
    <path d="M90,14 C120,-6 164,-4 186,18 C162,8 122,18 100,30Z" fill="white" opacity="0.4"/>

    <!-- Bill 3 (back — widely fanned, darker green) -->
    <g transform="translate(-16,-22) rotate(12)">
      <rect x="-86" y="-48" width="172" height="96" rx="13" fill="#15803d"/>
      <rect x="-86" y="-48" width="172" height="96" rx="13" fill="none" stroke="#fbbf24" stroke-width="2" opacity="0.45"/>
      <rect x="-72" y="-34" width="144" height="68" rx="8" fill="none" stroke="rgba(255,255,255,0.12)" stroke-width="1"/>
    </g>

    <!-- Bill 2 (middle — medium fan) -->
    <g transform="translate(-8,-11) rotate(6)">
      <rect x="-86" y="-48" width="172" height="96" rx="13" fill="#16a34a"/>
      <rect x="-86" y="-48" width="172" height="96" rx="13" fill="none" stroke="#fbbf24" stroke-width="2" opacity="0.55"/>
      <rect x="-86" y="-48" width="172" height="48" rx="13" fill="url(#billShine)" opacity="0.4"/>
      <rect x="-72" y="-34" width="144" height="68" rx="8" fill="none" stroke="rgba(255,255,255,0.15)" stroke-width="1"/>
    </g>

    <!-- Bill 1 (front — full detail) -->
    <rect x="-86" y="-48" width="172" height="96" rx="13" fill="url(#billGrad)"/>
    <rect x="-86" y="-48" width="172" height="96" rx="13" fill="none" stroke="#fbbf24" stroke-width="2.5" opacity="0.75"/>
    <rect x="-86" y="-48" width="172" height="48" rx="13" fill="url(#billShine)"/>
    <rect x="-72" y="-34" width="144" height="68" rx="8" fill="none" stroke="rgba(255,255,255,0.22)" stroke-width="1.5"/>
    <circle cx="0" cy="0" r="34" fill="rgba(255,255,255,0.1)" stroke="rgba(255,255,255,0.28)" stroke-width="2"/>
    <text x="0" y="14" font-family="'Arial Black',Arial,sans-serif" font-weight="900" font-size="42" fill="white" fill-opacity="0.95" text-anchor="middle">₱</text>
    <text x="-58" y="-26" font-family="Arial" font-weight="700" font-size="14" fill="rgba(255,255,255,0.7)">100</text>
    <text x="58" y="40" font-family="Arial" font-weight="700" font-size="14" fill="rgba(255,255,255,0.7)" text-anchor="end">100</text>
  </g>

  <!-- ═══ TRACE ═══ -->
  <path d="M326,102 Q296,168 262,244 Q234,296 212,324" fill="none" stroke="#f59e0b" stroke-width="16" stroke-linecap="round" stroke-dasharray="15,10" opacity="0.14" filter="url(#glow)"/>
  <path d="M326,102 Q296,168 262,244 Q234,296 212,324" fill="none" stroke="url(#traceGrad)" stroke-width="6" stroke-linecap="round" stroke-dasharray="14,9" filter="url(#softGlow)"/>
  <path d="M338,94 Q308,162 274,238 Q246,290 224,318" fill="none" stroke="rgba(253,230,138,0.35)" stroke-width="3" stroke-linecap="round" stroke-dasharray="10,12"/>

  <!-- ═══ FOUR TRAIL COINS (along the trace, dimmed) ═══ -->
  <!-- Coin 1 — near bill, largest -->
  <g transform="translate(314,132)" filter="url(#coinShadow)" opacity="0.85">
    <circle r="11" fill="url(#coinOuter)"/>
    <circle r="11" fill="none" stroke="#7a5a0a" stroke-width="1.5"/>
    <circle r="9" fill="url(#coinMiddle)"/>
    <circle r="6.8" fill="url(#coinInner)"/>
    <text y="3" font-family="'Arial Black',Arial,sans-serif" font-weight="900" font-size="9" fill="#b8860b" text-anchor="middle">₱</text>
    <path d="M-4,-5.5 A6.8,6.8,0,0,1,5,-3.8" fill="none" stroke="rgba(255,255,255,0.45)" stroke-width="2" stroke-linecap="round"/>
    <circle cx="-2.2" cy="-4" r="1.6" fill="white" opacity="0.38"/>
  </g>
  <!-- Coin 2 -->
  <g transform="translate(296,176)" filter="url(#coinShadow)" opacity="0.78">
    <circle r="10" fill="url(#coinOuter)"/>
    <circle r="10" fill="none" stroke="#7a5a0a" stroke-width="1.3"/>
    <circle r="8" fill="url(#coinMiddle)"/>
    <circle r="6" fill="url(#coinInner)"/>
    <text y="2.8" font-family="'Arial Black',Arial,sans-serif" font-weight="900" font-size="8" fill="#b8860b" text-anchor="middle">₱</text>
    <path d="M-3.5,-5 A6,6,0,0,1,4.5,-3.5" fill="none" stroke="rgba(255,255,255,0.42)" stroke-width="1.8" stroke-linecap="round"/>
    <circle cx="-2" cy="-3.5" r="1.5" fill="white" opacity="0.35"/>
  </g>
  <!-- Coin 3 -->
  <g transform="translate(276,218)" filter="url(#coinShadow)" opacity="0.72">
    <circle r="9" fill="url(#coinOuter)"/>
    <circle r="9" fill="none" stroke="#7a5a0a" stroke-width="1.2"/>
    <circle r="7.2" fill="url(#coinMiddle)"/>
    <circle r="5.5" fill="url(#coinInner)"/>
    <text y="2.5" font-family="'Arial Black',Arial,sans-serif" font-weight="900" font-size="7" fill="#b8860b" text-anchor="middle">₱</text>
    <path d="M-3,-4.5 A5.5,5.5,0,0,1,4,-3" fill="none" stroke="rgba(255,255,255,0.4)" stroke-width="1.5" stroke-linecap="round"/>
    <circle cx="-1.8" cy="-3.2" r="1.3" fill="white" opacity="0.32"/>
  </g>
  <!-- Coin 4 — near glass, smallest -->
  <g transform="translate(256,258)" filter="url(#coinShadow)" opacity="0.65">
    <circle r="7.5" fill="url(#coinOuter)"/>
    <circle r="7.5" fill="none" stroke="#7a5a0a" stroke-width="1"/>
    <circle r="6" fill="url(#coinMiddle)"/>
    <circle r="4.5" fill="url(#coinInner)"/>
    <text y="2" font-family="'Arial Black',Arial,sans-serif" font-weight="900" font-size="6" fill="#b8860b" text-anchor="middle">₱</text>
    <path d="M-2.5,-3.8 A4.5,4.5,0,0,1,3.2,-2.5" fill="none" stroke="rgba(255,255,255,0.35)" stroke-width="1.3" stroke-linecap="round"/>
    <circle cx="-1.5" cy="-2.6" r="1.1" fill="white" opacity="0.28"/>
  </g>

  <!-- ═══ MAGNIFYING GLASS (realistic chrome style) ═══ -->

  <!-- Handle shadow -->
  <line x1="286" y1="398" x2="430" y2="486" stroke="#000" stroke-width="40" stroke-linecap="round" opacity="0.25"/>

  <!-- Handle — glossy black barrel (longer) -->
  <line x1="282" y1="392" x2="426" y2="484" stroke="#0a0a0a" stroke-width="38" stroke-linecap="round"/>
  <line x1="282" y1="392" x2="426" y2="484" stroke="url(#handleGrad)" stroke-width="34" stroke-linecap="round"/>
  <!-- Handle left-edge highlight (glossy shine) -->
  <line x1="278" y1="396" x2="420" y2="480" stroke="rgba(255,255,255,0.22)" stroke-width="6" stroke-linecap="round"/>
  <!-- Handle center shine (subtle) -->
  <line x1="284" y1="394" x2="424" y2="482" stroke="rgba(255,255,255,0.08)" stroke-width="14" stroke-linecap="round"/>

  <!-- Handle end cap (knurled metal) -->
  <circle cx="426" cy="484" r="20" fill="#1c1917"/>
  <circle cx="426" cy="484" r="20" fill="none" stroke="#44403c" stroke-width="2"/>
  <circle cx="426" cy="484" r="16" fill="none" stroke="rgba(255,255,255,0.08)" stroke-width="1.5" stroke-dasharray="3,3"/>

  <!-- Chrome connector (silver, not gold — like the reference) -->
  <linearGradient id="connectorGrad" x1="0%" y1="0%" x2="100%" y2="100%">
    <stop offset="0%" stop-color="#e2e8f0"/>
    <stop offset="30%" stop-color="#cbd5e1"/>
    <stop offset="60%" stop-color="#94a3b8"/>
    <stop offset="100%" stop-color="#64748b"/>
  </linearGradient>
  <line x1="270" y1="382" x2="292" y2="396" stroke="#0f172a" stroke-width="42" stroke-linecap="butt"/>
  <line x1="270" y1="382" x2="292" y2="396" stroke="url(#connectorGrad)" stroke-width="38" stroke-linecap="butt"/>
  <!-- Connector shine -->
  <line x1="270" y1="380" x2="286" y2="390" stroke="rgba(255,255,255,0.4)" stroke-width="6" stroke-linecap="round"/>
  <!-- Connector edge lines -->
  <line x1="268" y1="384" x2="268" y2="380" stroke="rgba(255,255,255,0.15)" stroke-width="1"/>
  <line x1="294" y1="398" x2="294" y2="394" stroke="rgba(0,0,0,0.2)" stroke-width="1"/>

  <!-- Ring shadow -->
  <circle cx="198" cy="315" r="118" fill="rgba(0,0,0,0.3)"/>

  <!-- Outer chrome ring — sleek and thin like the reference -->
  <circle cx="194" cy="310" r="114" fill="none" stroke="#0f172a" stroke-width="2.5"/>
  <!-- Main chrome ring body -->
  <circle cx="194" cy="310" r="112" fill="none" stroke="url(#ringGrad)" stroke-width="22"/>
  <!-- Inner chrome bevel -->
  <circle cx="194" cy="310" r="112" fill="none" stroke="url(#ringInner)" stroke-width="8"/>
  <!-- Bright top-left highlight arc -->
  <circle cx="194" cy="310" r="112" fill="none"
          stroke="url(#ringHL)" stroke-width="12"
          stroke-dasharray="170 540" stroke-dashoffset="0"
          stroke-linecap="round"/>
  <!-- Subtle bottom-right reflected light -->
  <circle cx="194" cy="310" r="112" fill="none"
          stroke="rgba(255,255,255,0.12)" stroke-width="5"
          stroke-dasharray="60 650" stroke-dashoffset="-290"
          stroke-linecap="round"/>
  <!-- Inner dark edge -->
  <circle cx="194" cy="310" r="101" fill="none" stroke="#1e293b" stroke-width="2.5"/>
  <!-- Inner chrome lip -->
  <circle cx="194" cy="310" r="99.5" fill="none" stroke="rgba(203,213,225,0.25)" stroke-width="1.5"/>

  <!-- Lens glass — clearer, more realistic -->
  <circle cx="194" cy="310" r="98" fill="rgba(240,249,255,0.06)"/>
  <circle cx="194" cy="310" r="98" fill="url(#lensGlass)"/>
  <!-- Subtle vignette -->
  <circle cx="194" cy="310" r="98" fill="url(#lensVignette)"/>

  <!-- Diagonal lens reflection (upper-left, away from coins) -->
  <path d="M120,248 L178,270 L166,284 L108,262Z" fill="rgba(255,255,255,0.08)"/>
  <!-- Second smaller reflection -->
  <path d="M184,260 L202,268 L196,278 L178,270Z" fill="rgba(255,255,255,0.05)"/>

  <!-- Glass surface glare arcs -->
  <path d="M112,254 a100,100,0,0,1,96,-38" fill="none" stroke="rgba(255,255,255,0.45)" stroke-width="6" stroke-linecap="round"/>
  <path d="M128,266 a86,86,0,0,1,56,-24" fill="none" stroke="rgba(255,255,255,0.18)" stroke-width="3.5" stroke-linecap="round"/>

  <!-- ═══ INSIDE LENS: tall stack + short stack + face-up coin ═══ -->
  <clipPath id="lensClip">
    <circle cx="194" cy="310" r="97"/>
  </clipPath>
  <g clip-path="url(#lensClip)">

    <!-- Golden discovery glow behind coins -->
    <radialGradient id="coinGlow" cx="50%" cy="55%" r="45%">
      <stop offset="0%" stop-color="#ffd54f" stop-opacity="0.18"/>
      <stop offset="60%" stop-color="#ffca28" stop-opacity="0.08"/>
      <stop offset="100%" stop-color="#f59e0b" stop-opacity="0"/>
    </radialGradient>
    <circle cx="190" cy="310" r="70" fill="url(#coinGlow)"/>

    <!-- ═══ TALL STACK (right, 6 layers) ═══ -->
    <g transform="translate(196,298)">
      <!-- Macro for stack layer: bottom ellipse, rect edge, ridges, top ellipse -->
      <!-- Layer 6 bottom -->
      <ellipse cy="40" rx="24" ry="7.5" fill="#d4a017"/>
      <rect x="-24" y="34" width="48" height="6" fill="url(#stackEdge)"/>
      <line x1="-21" y1="34" x2="-21" y2="40" stroke="#ffd54f" stroke-width="1.5" opacity="0.7"/><line x1="-15" y1="34" x2="-15" y2="40" stroke="#ffd54f" stroke-width="1.5" opacity="0.7"/><line x1="-9" y1="34" x2="-9" y2="40" stroke="#ffd54f" stroke-width="1.5" opacity="0.7"/><line x1="-3" y1="34" x2="-3" y2="40" stroke="#ffd54f" stroke-width="1.5" opacity="0.7"/><line x1="3" y1="34" x2="3" y2="40" stroke="#ffd54f" stroke-width="1.5" opacity="0.7"/><line x1="9" y1="34" x2="9" y2="40" stroke="#ffd54f" stroke-width="1.5" opacity="0.7"/><line x1="15" y1="34" x2="15" y2="40" stroke="#ffd54f" stroke-width="1.5" opacity="0.7"/><line x1="21" y1="34" x2="21" y2="40" stroke="#ffd54f" stroke-width="1.5" opacity="0.7"/>
      <ellipse cy="34" rx="24" ry="7.5" fill="#ffca28"/>
      <!-- Layer 5 -->
      <ellipse cy="30.5" rx="24" ry="7.5" fill="#d4a017"/>
      <rect x="-24" y="24.5" width="48" height="6" fill="url(#stackEdge)"/>
      <line x1="-21" y1="24.5" x2="-21" y2="30.5" stroke="#ffd54f" stroke-width="1.5" opacity="0.7"/><line x1="-15" y1="24.5" x2="-15" y2="30.5" stroke="#ffd54f" stroke-width="1.5" opacity="0.7"/><line x1="-9" y1="24.5" x2="-9" y2="30.5" stroke="#ffd54f" stroke-width="1.5" opacity="0.7"/><line x1="-3" y1="24.5" x2="-3" y2="30.5" stroke="#ffd54f" stroke-width="1.5" opacity="0.7"/><line x1="3" y1="24.5" x2="3" y2="30.5" stroke="#ffd54f" stroke-width="1.5" opacity="0.7"/><line x1="9" y1="24.5" x2="9" y2="30.5" stroke="#ffd54f" stroke-width="1.5" opacity="0.7"/><line x1="15" y1="24.5" x2="15" y2="30.5" stroke="#ffd54f" stroke-width="1.5" opacity="0.7"/><line x1="21" y1="24.5" x2="21" y2="30.5" stroke="#ffd54f" stroke-width="1.5" opacity="0.7"/>
      <ellipse cy="24.5" rx="24" ry="7.5" fill="#ffca28"/>
      <!-- Layer 4 -->
      <ellipse cy="21" rx="24" ry="7.5" fill="#d4a017"/>
      <rect x="-24" y="15" width="48" height="6" fill="url(#stackEdge)"/>
      <line x1="-21" y1="15" x2="-21" y2="21" stroke="#ffd54f" stroke-width="1.5" opacity="0.7"/><line x1="-15" y1="15" x2="-15" y2="21" stroke="#ffd54f" stroke-width="1.5" opacity="0.7"/><line x1="-9" y1="15" x2="-9" y2="21" stroke="#ffd54f" stroke-width="1.5" opacity="0.7"/><line x1="-3" y1="15" x2="-3" y2="21" stroke="#ffd54f" stroke-width="1.5" opacity="0.7"/><line x1="3" y1="15" x2="3" y2="21" stroke="#ffd54f" stroke-width="1.5" opacity="0.7"/><line x1="9" y1="15" x2="9" y2="21" stroke="#ffd54f" stroke-width="1.5" opacity="0.7"/><line x1="15" y1="15" x2="15" y2="21" stroke="#ffd54f" stroke-width="1.5" opacity="0.7"/><line x1="21" y1="15" x2="21" y2="21" stroke="#ffd54f" stroke-width="1.5" opacity="0.7"/>
      <ellipse cy="15" rx="24" ry="7.5" fill="#ffca28"/>
      <!-- Layer 3 -->
      <ellipse cy="11.5" rx="24" ry="7.5" fill="#d4a017"/>
      <rect x="-24" y="5.5" width="48" height="6" fill="url(#stackEdge)"/>
      <line x1="-21" y1="5.5" x2="-21" y2="11.5" stroke="#ffd54f" stroke-width="1.5" opacity="0.7"/><line x1="-15" y1="5.5" x2="-15" y2="11.5" stroke="#ffd54f" stroke-width="1.5" opacity="0.7"/><line x1="-9" y1="5.5" x2="-9" y2="11.5" stroke="#ffd54f" stroke-width="1.5" opacity="0.7"/><line x1="-3" y1="5.5" x2="-3" y2="11.5" stroke="#ffd54f" stroke-width="1.5" opacity="0.7"/><line x1="3" y1="5.5" x2="3" y2="11.5" stroke="#ffd54f" stroke-width="1.5" opacity="0.7"/><line x1="9" y1="5.5" x2="9" y2="11.5" stroke="#ffd54f" stroke-width="1.5" opacity="0.7"/><line x1="15" y1="5.5" x2="15" y2="11.5" stroke="#ffd54f" stroke-width="1.5" opacity="0.7"/><line x1="21" y1="5.5" x2="21" y2="11.5" stroke="#ffd54f" stroke-width="1.5" opacity="0.7"/>
      <ellipse cy="5.5" rx="24" ry="7.5" fill="#ffca28"/>
      <!-- Layer 2 -->
      <ellipse cy="2" rx="24" ry="7.5" fill="#d4a017"/>
      <rect x="-24" y="-4" width="48" height="6" fill="url(#stackEdge)"/>
      <line x1="-21" y1="-4" x2="-21" y2="2" stroke="#ffd54f" stroke-width="1.5" opacity="0.7"/><line x1="-15" y1="-4" x2="-15" y2="2" stroke="#ffd54f" stroke-width="1.5" opacity="0.7"/><line x1="-9" y1="-4" x2="-9" y2="2" stroke="#ffd54f" stroke-width="1.5" opacity="0.7"/><line x1="-3" y1="-4" x2="-3" y2="2" stroke="#ffd54f" stroke-width="1.5" opacity="0.7"/><line x1="3" y1="-4" x2="3" y2="2" stroke="#ffd54f" stroke-width="1.5" opacity="0.7"/><line x1="9" y1="-4" x2="9" y2="2" stroke="#ffd54f" stroke-width="1.5" opacity="0.7"/><line x1="15" y1="-4" x2="15" y2="2" stroke="#ffd54f" stroke-width="1.5" opacity="0.7"/><line x1="21" y1="-4" x2="21" y2="2" stroke="#ffd54f" stroke-width="1.5" opacity="0.7"/>
      <ellipse cy="-4" rx="24" ry="7.5" fill="#ffca28"/>
      <!-- Top coin -->
      <ellipse cy="-7.5" rx="24" ry="7.5" fill="#e6a100"/>
      <rect x="-24" y="-13.5" width="48" height="6" fill="url(#stackEdge)"/>
      <line x1="-21" y1="-13.5" x2="-21" y2="-7.5" stroke="#ffd54f" stroke-width="1.5" opacity="0.7"/><line x1="-15" y1="-13.5" x2="-15" y2="-7.5" stroke="#ffd54f" stroke-width="1.5" opacity="0.7"/><line x1="-9" y1="-13.5" x2="-9" y2="-7.5" stroke="#ffd54f" stroke-width="1.5" opacity="0.7"/><line x1="-3" y1="-13.5" x2="-3" y2="-7.5" stroke="#ffd54f" stroke-width="1.5" opacity="0.7"/><line x1="3" y1="-13.5" x2="3" y2="-7.5" stroke="#ffd54f" stroke-width="1.5" opacity="0.7"/><line x1="9" y1="-13.5" x2="9" y2="-7.5" stroke="#ffd54f" stroke-width="1.5" opacity="0.7"/><line x1="15" y1="-13.5" x2="15" y2="-7.5" stroke="#ffd54f" stroke-width="1.5" opacity="0.7"/><line x1="21" y1="-13.5" x2="21" y2="-7.5" stroke="#ffd54f" stroke-width="1.5" opacity="0.7"/>
      <ellipse cy="-13.5" rx="24" ry="7.5" fill="url(#coinOuterBig)"/>
      <ellipse cy="-13.5" rx="24" ry="7.5" fill="none" stroke="#7a5a0a" stroke-width="1.8"/>
      <ellipse cy="-13.5" rx="19" ry="5.8" fill="url(#coinMiddleBig)"/>
      <ellipse cy="-13.5" rx="14" ry="4.2" fill="url(#coinInnerBig)"/>
      <text y="-11" font-family="'Arial Black',Arial,sans-serif" font-weight="900" font-size="6.5" fill="#b8860b" text-anchor="middle">₱</text>
      <ellipse cx="-5" cy="-16" rx="7" ry="2.2" fill="rgba(255,255,255,0.35)"/>
    </g>

    <!-- ═══ SHORT STACK (left, 4 layers) ═══ -->
    <g transform="translate(142,316)">
      <!-- Layer 4 bottom -->
      <ellipse cy="22" rx="22" ry="7" fill="#d4a017"/>
      <rect x="-22" y="16.5" width="44" height="5.5" fill="url(#stackEdge)"/>
      <line x1="-19" y1="16.5" x2="-19" y2="22" stroke="#ffd54f" stroke-width="1.4" opacity="0.7"/><line x1="-13" y1="16.5" x2="-13" y2="22" stroke="#ffd54f" stroke-width="1.4" opacity="0.7"/><line x1="-7" y1="16.5" x2="-7" y2="22" stroke="#ffd54f" stroke-width="1.4" opacity="0.7"/><line x1="-1" y1="16.5" x2="-1" y2="22" stroke="#ffd54f" stroke-width="1.4" opacity="0.7"/><line x1="5" y1="16.5" x2="5" y2="22" stroke="#ffd54f" stroke-width="1.4" opacity="0.7"/><line x1="11" y1="16.5" x2="11" y2="22" stroke="#ffd54f" stroke-width="1.4" opacity="0.7"/><line x1="17" y1="16.5" x2="17" y2="22" stroke="#ffd54f" stroke-width="1.4" opacity="0.7"/>
      <ellipse cy="16.5" rx="22" ry="7" fill="#ffca28"/>
      <!-- Layer 3 -->
      <ellipse cy="13" rx="22" ry="7" fill="#d4a017"/>
      <rect x="-22" y="7.5" width="44" height="5.5" fill="url(#stackEdge)"/>
      <line x1="-19" y1="7.5" x2="-19" y2="13" stroke="#ffd54f" stroke-width="1.4" opacity="0.7"/><line x1="-13" y1="7.5" x2="-13" y2="13" stroke="#ffd54f" stroke-width="1.4" opacity="0.7"/><line x1="-7" y1="7.5" x2="-7" y2="13" stroke="#ffd54f" stroke-width="1.4" opacity="0.7"/><line x1="-1" y1="7.5" x2="-1" y2="13" stroke="#ffd54f" stroke-width="1.4" opacity="0.7"/><line x1="5" y1="7.5" x2="5" y2="13" stroke="#ffd54f" stroke-width="1.4" opacity="0.7"/><line x1="11" y1="7.5" x2="11" y2="13" stroke="#ffd54f" stroke-width="1.4" opacity="0.7"/><line x1="17" y1="7.5" x2="17" y2="13" stroke="#ffd54f" stroke-width="1.4" opacity="0.7"/>
      <ellipse cy="7.5" rx="22" ry="7" fill="#ffca28"/>
      <!-- Layer 2 -->
      <ellipse cy="4" rx="22" ry="7" fill="#d4a017"/>
      <rect x="-22" y="-1.5" width="44" height="5.5" fill="url(#stackEdge)"/>
      <line x1="-19" y1="-1.5" x2="-19" y2="4" stroke="#ffd54f" stroke-width="1.4" opacity="0.7"/><line x1="-13" y1="-1.5" x2="-13" y2="4" stroke="#ffd54f" stroke-width="1.4" opacity="0.7"/><line x1="-7" y1="-1.5" x2="-7" y2="4" stroke="#ffd54f" stroke-width="1.4" opacity="0.7"/><line x1="-1" y1="-1.5" x2="-1" y2="4" stroke="#ffd54f" stroke-width="1.4" opacity="0.7"/><line x1="5" y1="-1.5" x2="5" y2="4" stroke="#ffd54f" stroke-width="1.4" opacity="0.7"/><line x1="11" y1="-1.5" x2="11" y2="4" stroke="#ffd54f" stroke-width="1.4" opacity="0.7"/><line x1="17" y1="-1.5" x2="17" y2="4" stroke="#ffd54f" stroke-width="1.4" opacity="0.7"/>
      <ellipse cy="-1.5" rx="22" ry="7" fill="#ffca28"/>
      <!-- Top coin -->
      <ellipse cy="-5" rx="22" ry="7" fill="#e6a100"/>
      <rect x="-22" y="-10.5" width="44" height="5.5" fill="url(#stackEdge)"/>
      <line x1="-19" y1="-10.5" x2="-19" y2="-5" stroke="#ffd54f" stroke-width="1.4" opacity="0.7"/><line x1="-13" y1="-10.5" x2="-13" y2="-5" stroke="#ffd54f" stroke-width="1.4" opacity="0.7"/><line x1="-7" y1="-10.5" x2="-7" y2="-5" stroke="#ffd54f" stroke-width="1.4" opacity="0.7"/><line x1="-1" y1="-10.5" x2="-1" y2="-5" stroke="#ffd54f" stroke-width="1.4" opacity="0.7"/><line x1="5" y1="-10.5" x2="5" y2="-5" stroke="#ffd54f" stroke-width="1.4" opacity="0.7"/><line x1="11" y1="-10.5" x2="11" y2="-5" stroke="#ffd54f" stroke-width="1.4" opacity="0.7"/><line x1="17" y1="-10.5" x2="17" y2="-5" stroke="#ffd54f" stroke-width="1.4" opacity="0.7"/>
      <ellipse cy="-10.5" rx="22" ry="7" fill="url(#coinOuterBig)"/>
      <ellipse cy="-10.5" rx="22" ry="7" fill="none" stroke="#7a5a0a" stroke-width="1.6"/>
      <ellipse cy="-10.5" rx="17" ry="5.2" fill="url(#coinMiddleBig)"/>
      <ellipse cy="-10.5" rx="13" ry="3.8" fill="url(#coinInnerBig)"/>
      <text y="-8.2" font-family="'Arial Black',Arial,sans-serif" font-weight="900" font-size="6" fill="#b8860b" text-anchor="middle">₱</text>
      <ellipse cx="-4.5" cy="-13" rx="6.5" ry="2" fill="rgba(255,255,255,0.32)"/>
    </g>

    <!-- ═══ FRONT FACE-UP COIN (smaller, front-right) ═══ -->
    <g transform="translate(232,322)">
      <circle r="27" fill="rgba(0,0,0,0.12)" cx="2" cy="2"/>
      <circle r="25" fill="url(#coinOuterBig)"/>
      <circle r="25" fill="none" stroke="#6b4f0a" stroke-width="3"/>
      <circle r="20.5" fill="url(#coinMiddleBig)"/>
      <circle r="16" fill="url(#coinInnerBig)"/>
      <text y="6.5" font-family="'Arial Black',Arial,sans-serif" font-weight="900" font-size="20" fill="#b8860b" text-anchor="middle">₱</text>
      <path d="M-9,-13 A16,16,0,0,1,12,-8" fill="none" stroke="rgba(255,255,255,0.5)" stroke-width="3.5" stroke-linecap="round"/>
      <circle cx="-5" cy="-10" r="3.5" fill="white" opacity="0.4"/>
      <path d="M-11,11 A16,16,0,0,1,-14,5" fill="none" stroke="rgba(255,255,255,0.1)" stroke-width="2" stroke-linecap="round"/>
    </g>

    <!-- Lens glare -->
    <ellipse cx="148" cy="256" rx="28" ry="12" fill="rgba(255,255,255,0.16)" transform="rotate(-32,148,256)"/>
  </g>

  <!-- Specular dot on glass -->
  <circle cx="142" cy="248" r="5" fill="white" opacity="0.35" filter="url(#softGlow)"/>
</svg>
