<svg xmlns="http://www.w3.org/2000/svg" viewBox="0 0 512 512">
  <defs>
    <linearGradient id="bg" x1="0%" y1="0%" x2="100%" y2="100%">
      <stop offset="0%" stop-color="#082f23"/>
      <stop offset="45%" stop-color="#0f766e"/>
      <stop offset="100%" stop-color="#065f46"/>
    </linearGradient>
    <linearGradient id="billGrad" x1="0%" y1="0%" x2="100%" y2="100%">
      <stop offset="0%" stop-color="#86efac"/>
      <stop offset="50%" stop-color="#22c55e"/>
      <stop offset="100%" stop-color="#15803d"/>
    </linearGradient>
    <linearGradient id="billGrad2" x1="100%" y1="0%" x2="0%" y2="100%">
      <stop offset="0%" stop-color="#6ee7b7"/>
      <stop offset="50%" stop-color="#22c55e"/>
      <stop offset="100%" stop-color="#16a34a"/>
    </linearGradient>
    <linearGradient id="billGrad3" x1="0%" y1="100%" x2="100%" y2="0%">
      <stop offset="0%" stop-color="#4ade80"/>
      <stop offset="50%" stop-color="#16a34a"/>
      <stop offset="100%" stop-color="#15803d"/>
    </linearGradient>
    <linearGradient id="traceGrad" x1="0%" y1="0%" x2="100%" y2="100%">
      <stop offset="0%" stop-color="#fde68a"/>
      <stop offset="100%" stop-color="#f59e0b"/>
    </linearGradient>
    <linearGradient id="traceGrad2" x1="100%" y1="0%" x2="0%" y2="100%">
      <stop offset="0%" stop-color="#fde68a"/>
      <stop offset="100%" stop-color="#d97706"/>
    </linearGradient>
    <linearGradient id="billShine" x1="0%" y1="0%" x2="0%" y2="100%">
      <stop offset="0%" stop-color="#ffffff" stop-opacity="0.3"/>
      <stop offset="100%" stop-color="#ffffff" stop-opacity="0"/>
    </linearGradient>

    <radialGradient id="coinTop" cx="45%" cy="40%" r="55%">
      <stop offset="0%" stop-color="#fff9c4"/>
      <stop offset="25%" stop-color="#ffe066"/>
      <stop offset="55%" stop-color="#ffc107"/>
      <stop offset="80%" stop-color="#e6a100"/>
      <stop offset="100%" stop-color="#c68600"/>
    </radialGradient>
    <radialGradient id="coinTopBig" cx="45%" cy="40%" r="55%">
      <stop offset="0%" stop-color="#fffde7"/>
      <stop offset="20%" stop-color="#fff176"/>
      <stop offset="50%" stop-color="#ffc107"/>
      <stop offset="75%" stop-color="#e6a100"/>
      <stop offset="100%" stop-color="#b8860b"/>
    </radialGradient>
    <linearGradient id="coinEdge" x1="0%" y1="0%" x2="0%" y2="100%">
      <stop offset="0%" stop-color="#d4a017"/>
      <stop offset="30%" stop-color="#b8860b"/>
      <stop offset="60%" stop-color="#8b6914"/>
      <stop offset="100%" stop-color="#6b4f0a"/>
    </linearGradient>

    <radialGradient id="lensGlass" cx="38%" cy="32%" r="68%">
      <stop offset="0%" stop-color="#e0f2fe" stop-opacity="0.28"/>
      <stop offset="35%" stop-color="#7dd3fc" stop-opacity="0.14"/>
      <stop offset="70%" stop-color="#0369a1" stop-opacity="0.12"/>
      <stop offset="100%" stop-color="#0c4a6e" stop-opacity="0.22"/>
    </radialGradient>
    <radialGradient id="lensVignette" cx="50%" cy="50%" r="50%">
      <stop offset="55%" stop-color="#000000" stop-opacity="0"/>
      <stop offset="100%" stop-color="#000000" stop-opacity="0.2"/>
    </radialGradient>
    <linearGradient id="ringGrad" x1="10%" y1="0%" x2="90%" y2="100%">
      <stop offset="0%" stop-color="#f1f5f9"/>
      <stop offset="15%" stop-color="#e2e8f0"/>
      <stop offset="35%" stop-color="#cbd5e1"/>
      <stop offset="50%" stop-color="#94a3b8"/>
      <stop offset="70%" stop-color="#64748b"/>
      <stop offset="85%" stop-color="#475569"/>
      <stop offset="100%" stop-color="#334155"/>
    </linearGradient>
    <linearGradient id="ringInner" x1="90%" y1="100%" x2="10%" y2="0%">
      <stop offset="0%" stop-color="#cbd5e1" stop-opacity="0.6"/>
      <stop offset="50%" stop-color="#64748b" stop-opacity="0.3"/>
      <stop offset="100%" stop-color="#e2e8f0" stop-opacity="0.5"/>
    </linearGradient>
    <linearGradient id="ringHL" x1="0%" y1="0%" x2="100%" y2="100%">
      <stop offset="0%" stop-color="#ffffff" stop-opacity="1"/>
      <stop offset="100%" stop-color="#ffffff" stop-opacity="0"/>
    </linearGradient>
    <linearGradient id="handleGrad" x1="0%" y1="0%" x2="100%" y2="100%">
      <stop offset="0%" stop-color="#3f3f46"/>
      <stop offset="30%" stop-color="#27272a"/>
      <stop offset="70%" stop-color="#1c1c1e"/>
      <stop offset="100%" stop-color="#18181b"/>
    </linearGradient>
    <linearGradient id="handleShine" x1="0%" y1="0%" x2="100%" y2="100%">
      <stop offset="0%" stop-color="#ffffff" stop-opacity="0.25"/>
      <stop offset="100%" stop-color="#ffffff" stop-opacity="0"/>
    </linearGradient>
    <linearGradient id="bandGrad" x1="0%" y1="0%" x2="0%" y2="100%">
      <stop offset="0%" stop-color="#fde68a"/>
      <stop offset="40%" stop-color="#fbbf24"/>
      <stop offset="70%" stop-color="#f59e0b"/>
      <stop offset="100%" stop-color="#b45309"/>
    </linearGradient>
    <linearGradient id="gripGrad" x1="0%" y1="0%" x2="100%" y2="100%">
      <stop offset="0%" stop-color="#292524"/>
      <stop offset="50%" stop-color="#1c1917"/>
      <stop offset="100%" stop-color="#0c0a09"/>
    </linearGradient>

    <filter id="shadow" x="-20%" y="-20%" width="140%" height="140%">
      <feDropShadow dx="2" dy="4" stdDeviation="5" flood-color="#000" flood-opacity="0.4"/>
    </filter>
    <filter id="smallShadow" x="-20%" y="-20%" width="140%" height="140%">
      <feDropShadow dx="1" dy="2" stdDeviation="3" flood-color="#000" flood-opacity="0.35"/>
    </filter>
    <filter id="glow" x="-40%" y="-40%" width="180%" height="180%">
      <feGaussianBlur stdDeviation="5" result="blur"/>
      <feMerge><feMergeNode in="blur"/><feMergeNode in="SourceGraphic"/></feMerge>
    </filter>
    <filter id="softGlow" x="-30%" y="-30%" width="160%" height="160%">
      <feGaussianBlur stdDeviation="3" result="blur"/>
      <feMerge><feMergeNode in="blur"/><feMergeNode in="SourceGraphic"/></feMerge>
    </filter>
    <filter id="coinShadow" x="-30%" y="-30%" width="160%" height="160%">
      <feDropShadow dx="1" dy="2" stdDeviation="2" flood-color="#000" flood-opacity="0.5"/>
    </filter>
  </defs>

  <!-- Background -->
  <rect width="512" height="512" rx="108" ry="108" fill="url(#bg)"/>
  <radialGradient id="bgGlow" cx="30%" cy="22%" r="50%">
    <stop offset="0%" stop-color="#34d399" stop-opacity="0.08"/>
    <stop offset="100%" stop-color="#ffffff" stop-opacity="0"/>
  </radialGradient>
  <rect width="512" height="512" rx="108" ry="108" fill="url(#bgGlow)"/>

  <!-- ═══ THREE BILLS — spread wide, scattered directions ═══ -->

  <!-- Bill 1 — TOP-LEFT, flying upper-left -->
  <g transform="translate(108,52) rotate(15) scale(0.46)" filter="url(#smallShadow)">
    <path d="M-86,0 C-116,-26 -148,-30 -164,-12 C-146,-18 -114,-4 -96,6Z" fill="white" opacity="0.6"/>
    <path d="M-86,12 C-108,-4 -142,-2 -158,16 C-140,8 -110,14 -92,24Z" fill="white" opacity="0.38"/>
    <path d="M86,0 C116,-26 148,-30 164,-12 C146,-18 114,-4 96,6Z" fill="white" opacity="0.6"/>
    <path d="M86,12 C108,-4 142,-2 158,16 C140,8 110,14 92,24Z" fill="white" opacity="0.38"/>
    <rect x="-86" y="-48" width="172" height="96" rx="13" fill="url(#billGrad2)"/>
    <rect x="-86" y="-48" width="172" height="96" rx="13" fill="none" stroke="#fbbf24" stroke-width="2.5" opacity="0.65"/>
    <rect x="-86" y="-48" width="172" height="48" rx="13" fill="url(#billShine)"/>
    <circle cx="0" cy="0" r="28" fill="rgba(255,255,255,0.08)" stroke="rgba(255,255,255,0.22)" stroke-width="1.5"/>
    <text x="0" y="11" font-family="'Arial Black',Arial,sans-serif" font-weight="900" font-size="34" fill="white" fill-opacity="0.88" text-anchor="middle">₱</text>
  </g>

  <!-- Bill 2 — TOP-CENTER, flying straight up -->
  <g transform="translate(280,30) rotate(-5) scale(0.48)" filter="url(#smallShadow)">
    <path d="M-86,0 C-116,-26 -148,-30 -164,-12 C-146,-18 -114,-4 -96,6Z" fill="white" opacity="0.65"/>
    <path d="M-86,12 C-108,-4 -142,-2 -158,16 C-140,8 -110,14 -92,24Z" fill="white" opacity="0.4"/>
    <path d="M86,0 C116,-26 148,-30 164,-12 C146,-18 114,-4 96,6Z" fill="white" opacity="0.65"/>
    <path d="M86,12 C108,-4 142,-2 158,16 C140,8 110,14 92,24Z" fill="white" opacity="0.4"/>
    <rect x="-86" y="-48" width="172" height="96" rx="13" fill="url(#billGrad)"/>
    <rect x="-86" y="-48" width="172" height="96" rx="13" fill="none" stroke="#fbbf24" stroke-width="2.5" opacity="0.7"/>
    <rect x="-86" y="-48" width="172" height="48" rx="13" fill="url(#billShine)"/>
    <circle cx="0" cy="0" r="30" fill="rgba(255,255,255,0.1)" stroke="rgba(255,255,255,0.25)" stroke-width="1.5"/>
    <text x="0" y="12" font-family="'Arial Black',Arial,sans-serif" font-weight="900" font-size="36" fill="white" fill-opacity="0.9" text-anchor="middle">₱</text>
  </g>

  <!-- Bill 3 — TOP-RIGHT, flying upper-right -->
  <g transform="translate(440,72) rotate(-35) scale(0.44)" filter="url(#smallShadow)">
    <path d="M-86,0 C-116,-26 -148,-30 -164,-12 C-146,-18 -114,-4 -96,6Z" fill="white" opacity="0.55"/>
    <path d="M86,0 C116,-26 148,-30 164,-12 C146,-18 114,-4 96,6Z" fill="white" opacity="0.55"/>
    <path d="M86,12 C108,-4 142,-2 158,16 C140,8 110,14 92,24Z" fill="white" opacity="0.35"/>
    <rect x="-86" y="-48" width="172" height="96" rx="13" fill="url(#billGrad3)"/>
    <rect x="-86" y="-48" width="172" height="96" rx="13" fill="none" stroke="#fbbf24" stroke-width="2.5" opacity="0.6"/>
    <rect x="-86" y="-48" width="172" height="48" rx="13" fill="url(#billShine)"/>
    <circle cx="0" cy="0" r="26" fill="rgba(255,255,255,0.08)" stroke="rgba(255,255,255,0.2)" stroke-width="1.5"/>
    <text x="0" y="10" font-family="'Arial Black',Arial,sans-serif" font-weight="900" font-size="32" fill="white" fill-opacity="0.82" text-anchor="middle">₱</text>
  </g>

  <!-- ═══ ONE BOLD TRACE PER BILL (3 total, converging to glass) ═══ -->

  <!-- Trace from bill 1 (top-left) — curves right and down -->
  <path d="M126,82 Q148,150 170,220 Q186,270 194,306" fill="none"
        stroke="url(#traceGrad2)" stroke-width="5" stroke-linecap="round"
        stroke-dasharray="13,9" filter="url(#softGlow)"/>

  <!-- Trace from bill 2 (top-center) — straight down -->
  <path d="M278,68 Q252,148 228,238 Q210,286 200,316" fill="none"
        stroke="url(#traceGrad)" stroke-width="5.5" stroke-linecap="round"
        stroke-dasharray="14,9" filter="url(#softGlow)"/>

  <!-- Trace from bill 3 (top-right) — curves left and down -->
  <path d="M412,96 Q360,164 306,242 Q254,298 216,326" fill="none"
        stroke="rgba(253,230,138,0.6)" stroke-width="4.5" stroke-linecap="round"
        stroke-dasharray="12,10" filter="url(#softGlow)"/>

  <!-- ═══ COINS along each trace — tilted at different angles ═══ -->

  <!-- Coin on trace 1 (tilted left) -->
  <g transform="translate(150,152) rotate(12)" filter="url(#coinShadow)">
    <ellipse rx="10" ry="4.2" cy="5.5" fill="#8b6914"/>
    <ellipse rx="10" ry="4.2" cy="4.5" fill="#a07818"/>
    <ellipse rx="10" ry="4.2" cy="3.5" fill="url(#coinEdge)"/>
    <line x1="-8" y1="3.5" x2="-8" y2="5.5" stroke="#6b4f0a" stroke-width="0.7"/>
    <line x1="-4.5" y1="4" x2="-4.5" y2="6" stroke="#6b4f0a" stroke-width="0.7"/>
    <line x1="-1" y1="4.2" x2="-1" y2="6.2" stroke="#6b4f0a" stroke-width="0.7"/>
    <line x1="2.5" y1="4" x2="2.5" y2="6" stroke="#6b4f0a" stroke-width="0.7"/>
    <line x1="6" y1="3.5" x2="6" y2="5.5" stroke="#6b4f0a" stroke-width="0.7"/>
    <ellipse rx="10" ry="4.2" fill="url(#coinTop)"/>
    <ellipse rx="10" ry="4.2" fill="none" stroke="#b8860b" stroke-width="1.3"/>
    <ellipse rx="7.2" ry="2.8" fill="none" stroke="rgba(184,139,50,0.45)" stroke-width="0.6"/>
    <text y="1.8" font-family="'Arial Black',Arial,sans-serif" font-weight="900" font-size="5" fill="#6b4f0a" fill-opacity="0.9" text-anchor="middle">₱</text>
    <ellipse cx="-2.5" cy="-1" rx="4.5" ry="1.5" fill="rgba(255,255,255,0.33)" transform="rotate(-10)"/>
  </g>

  <!-- Coin on trace 2 (flat, head-on) -->
  <g transform="translate(262,152) rotate(-6)" filter="url(#coinShadow)">
    <ellipse rx="11" ry="4.5" cy="5.8" fill="#8b6914"/>
    <ellipse rx="11" ry="4.5" cy="4.8" fill="#a07818"/>
    <ellipse rx="11" ry="4.5" cy="3.8" fill="url(#coinEdge)"/>
    <line x1="-9" y1="3.8" x2="-9" y2="5.8" stroke="#6b4f0a" stroke-width="0.7"/>
    <line x1="-5.5" y1="4.3" x2="-5.5" y2="6.3" stroke="#6b4f0a" stroke-width="0.7"/>
    <line x1="-2" y1="4.5" x2="-2" y2="6.5" stroke="#6b4f0a" stroke-width="0.7"/>
    <line x1="1.5" y1="4.3" x2="1.5" y2="6.3" stroke="#6b4f0a" stroke-width="0.7"/>
    <line x1="5" y1="3.8" x2="5" y2="5.8" stroke="#6b4f0a" stroke-width="0.7"/>
    <line x1="8.5" y1="3.5" x2="8.5" y2="5.5" stroke="#6b4f0a" stroke-width="0.7"/>
    <ellipse rx="11" ry="4.5" fill="url(#coinTop)"/>
    <ellipse rx="11" ry="4.5" fill="none" stroke="#b8860b" stroke-width="1.4"/>
    <ellipse rx="8" ry="3" fill="none" stroke="rgba(184,139,50,0.45)" stroke-width="0.6"/>
    <text y="1.8" font-family="'Arial Black',Arial,sans-serif" font-weight="900" font-size="5.5" fill="#6b4f0a" fill-opacity="0.9" text-anchor="middle">₱</text>
    <ellipse cx="-2.8" cy="-1" rx="5" ry="1.6" fill="rgba(255,255,255,0.35)" transform="rotate(-8)"/>
  </g>

  <!-- Coin on trace 3 (tilted right, tumbling) -->
  <g transform="translate(364,164) rotate(-20)" filter="url(#coinShadow)">
    <ellipse rx="9.5" ry="4" cy="5.2" fill="#8b6914"/>
    <ellipse rx="9.5" ry="4" cy="4.2" fill="#a07818"/>
    <ellipse rx="9.5" ry="4" cy="3.3" fill="url(#coinEdge)"/>
    <line x1="-7.5" y1="3.3" x2="-7.5" y2="5.2" stroke="#6b4f0a" stroke-width="0.65"/>
    <line x1="-4" y1="3.8" x2="-4" y2="5.7" stroke="#6b4f0a" stroke-width="0.65"/>
    <line x1="-0.5" y1="4" x2="-0.5" y2="5.9" stroke="#6b4f0a" stroke-width="0.65"/>
    <line x1="3" y1="3.8" x2="3" y2="5.7" stroke="#6b4f0a" stroke-width="0.65"/>
    <line x1="6.5" y1="3.3" x2="6.5" y2="5.2" stroke="#6b4f0a" stroke-width="0.65"/>
    <ellipse rx="9.5" ry="4" fill="url(#coinTop)"/>
    <ellipse rx="9.5" ry="4" fill="none" stroke="#b8860b" stroke-width="1.2"/>
    <ellipse rx="6.8" ry="2.6" fill="none" stroke="rgba(184,139,50,0.42)" stroke-width="0.55"/>
    <text y="1.6" font-family="'Arial Black',Arial,sans-serif" font-weight="900" font-size="5" fill="#6b4f0a" fill-opacity="0.9" text-anchor="middle">₱</text>
    <ellipse cx="-2.2" cy="-0.9" rx="4.2" ry="1.4" fill="rgba(255,255,255,0.3)" transform="rotate(-12)"/>
  </g>

  <!-- ═══ MAGNIFYING GLASS ═══ -->

  <!-- Handle -->
  <line x1="284" y1="396" x2="400" y2="464" stroke="#000" stroke-width="54" stroke-linecap="round" opacity="0.3"/>
  <line x1="280" y1="390" x2="398" y2="460" stroke="#0a0a0a" stroke-width="52" stroke-linecap="round"/>
  <line x1="280" y1="390" x2="398" y2="460" stroke="url(#handleGrad)" stroke-width="46" stroke-linecap="round"/>
  <line x1="330" y1="418" x2="338" y2="423" stroke="rgba(255,255,255,0.06)" stroke-width="2"/>
  <line x1="340" y1="424" x2="348" y2="429" stroke="rgba(255,255,255,0.06)" stroke-width="2"/>
  <line x1="350" y1="430" x2="358" y2="435" stroke="rgba(255,255,255,0.06)" stroke-width="2"/>
  <line x1="360" y1="436" x2="368" y2="441" stroke="rgba(255,255,255,0.06)" stroke-width="2"/>
  <line x1="370" y1="442" x2="378" y2="447" stroke="rgba(255,255,255,0.06)" stroke-width="2"/>
  <line x1="282" y1="394" x2="392" y2="456" stroke="url(#handleShine)" stroke-width="12" stroke-linecap="round"/>
  <circle cx="398" cy="460" r="24" fill="url(#gripGrad)"/>
  <circle cx="398" cy="460" r="24" fill="none" stroke="rgba(255,255,255,0.08)" stroke-width="2"/>

  <!-- Gold band -->
  <line x1="274" y1="385" x2="298" y2="399" stroke="#0a0a0a" stroke-width="52" stroke-linecap="butt"/>
  <line x1="274" y1="385" x2="298" y2="399" stroke="url(#bandGrad)" stroke-width="48" stroke-linecap="butt"/>
  <line x1="274" y1="383" x2="292" y2="393" stroke="rgba(255,255,255,0.3)" stroke-width="8" stroke-linecap="round"/>

  <!-- Ring -->
  <circle cx="198" cy="315" r="126" fill="rgba(0,0,0,0.35)"/>
  <circle cx="194" cy="310" r="122" fill="none" stroke="#0f172a" stroke-width="9"/>
  <circle cx="194" cy="310" r="118" fill="none" stroke="url(#ringGrad)" stroke-width="48"/>
  <circle cx="194" cy="310" r="118" fill="none" stroke="url(#ringInner)" stroke-width="16"/>
  <circle cx="194" cy="310" r="118" fill="none" stroke="url(#ringHL)" stroke-width="24" stroke-dasharray="190 560" stroke-dashoffset="0" stroke-linecap="round"/>
  <circle cx="194" cy="310" r="118" fill="none" stroke="rgba(255,255,255,0.15)" stroke-width="10" stroke-dasharray="70 680" stroke-dashoffset="-300" stroke-linecap="round"/>
  <circle cx="194" cy="310" r="94" fill="none" stroke="#0f172a" stroke-width="4.5"/>
  <circle cx="194" cy="310" r="92" fill="none" stroke="rgba(148,163,184,0.3)" stroke-width="2"/>

  <!-- Lens -->
  <circle cx="194" cy="310" r="90" fill="#0a3d5c" opacity="0.08"/>
  <circle cx="194" cy="310" r="90" fill="url(#lensGlass)"/>
  <circle cx="194" cy="310" r="90" fill="url(#lensVignette)"/>

  <!-- Magnified content inside lens -->
  <clipPath id="lensClip">
    <circle cx="194" cy="310" r="89"/>
  </clipPath>
  <g clip-path="url(#lensClip)">
    <!-- Magnified traces (3 bold, converging) -->
    <path d="M120,270 Q154,296 194,330" fill="none" stroke="#fde68a" stroke-width="7" stroke-linecap="round" stroke-dasharray="16,9" filter="url(#glow)" opacity="0.75"/>
    <path d="M180,244 Q190,278 200,326" fill="none" stroke="url(#traceGrad)" stroke-width="6.5" stroke-linecap="round" stroke-dasharray="14,9" filter="url(#softGlow)" opacity="0.7"/>
    <path d="M262,258 Q232,286 206,320" fill="none" stroke="rgba(253,230,138,0.55)" stroke-width="5.5" stroke-linecap="round" stroke-dasharray="12,10"/>

    <!-- Magnified coins -->
    <!-- Big coin 1 (left trace) -->
    <g transform="translate(140,276) rotate(10)" filter="url(#glow)">
      <ellipse rx="19" ry="8.5" cy="8.5" fill="#6b4f0a"/>
      <ellipse rx="19" ry="8.5" cy="7" fill="#8b6914"/>
      <ellipse rx="19" ry="8.5" cy="5.5" fill="url(#coinEdge)"/>
      <line x1="-16" y1="5.5" x2="-16" y2="8.5" stroke="#5a4008" stroke-width="1.1"/>
      <line x1="-12" y1="6.3" x2="-12" y2="9.3" stroke="#5a4008" stroke-width="1.1"/>
      <line x1="-8" y1="6.8" x2="-8" y2="9.8" stroke="#5a4008" stroke-width="1.1"/>
      <line x1="-4" y1="7.2" x2="-4" y2="10.2" stroke="#5a4008" stroke-width="1.1"/>
      <line x1="0" y1="7.3" x2="0" y2="10.3" stroke="#5a4008" stroke-width="1.1"/>
      <line x1="4" y1="7.2" x2="4" y2="10.2" stroke="#5a4008" stroke-width="1.1"/>
      <line x1="8" y1="6.8" x2="8" y2="9.8" stroke="#5a4008" stroke-width="1.1"/>
      <line x1="12" y1="6.3" x2="12" y2="9.3" stroke="#5a4008" stroke-width="1.1"/>
      <line x1="16" y1="5.5" x2="16" y2="8.5" stroke="#5a4008" stroke-width="1.1"/>
      <ellipse rx="19" ry="8.5" fill="url(#coinTopBig)"/>
      <ellipse rx="19" ry="8.5" fill="none" stroke="#b8860b" stroke-width="2"/>
      <ellipse rx="14.5" ry="6" fill="none" stroke="rgba(180,130,30,0.5)" stroke-width="1"/>
      <text y="3.2" font-family="'Arial Black',Arial,sans-serif" font-weight="900" font-size="10.5" fill="#6b4f0a" fill-opacity="0.85" text-anchor="middle">₱</text>
      <ellipse cx="-5" cy="-2.2" rx="8.5" ry="3.2" fill="rgba(255,255,255,0.35)" transform="rotate(-8)"/>
    </g>

    <!-- Big coin 2 (center trace) -->
    <g transform="translate(188,296) rotate(-4)" filter="url(#glow)">
      <ellipse rx="16.5" ry="7.2" cy="7.2" fill="#6b4f0a"/>
      <ellipse rx="16.5" ry="7.2" cy="5.8" fill="#8b6914"/>
      <ellipse rx="16.5" ry="7.2" cy="4.8" fill="url(#coinEdge)"/>
      <line x1="-13.5" y1="4.8" x2="-13.5" y2="7.2" stroke="#5a4008" stroke-width="1"/>
      <line x1="-9.5" y1="5.5" x2="-9.5" y2="7.9" stroke="#5a4008" stroke-width="1"/>
      <line x1="-5.5" y1="5.9" x2="-5.5" y2="8.3" stroke="#5a4008" stroke-width="1"/>
      <line x1="-1.5" y1="6.1" x2="-1.5" y2="8.5" stroke="#5a4008" stroke-width="1"/>
      <line x1="2.5" y1="5.9" x2="2.5" y2="8.3" stroke="#5a4008" stroke-width="1"/>
      <line x1="6.5" y1="5.5" x2="6.5" y2="7.9" stroke="#5a4008" stroke-width="1"/>
      <line x1="10.5" y1="4.8" x2="10.5" y2="7.2" stroke="#5a4008" stroke-width="1"/>
      <ellipse rx="16.5" ry="7.2" fill="url(#coinTopBig)"/>
      <ellipse rx="16.5" ry="7.2" fill="none" stroke="#b8860b" stroke-width="1.8"/>
      <ellipse rx="12.5" ry="5.2" fill="none" stroke="rgba(180,130,30,0.45)" stroke-width="0.9"/>
      <text y="2.8" font-family="'Arial Black',Arial,sans-serif" font-weight="900" font-size="9" fill="#6b4f0a" fill-opacity="0.85" text-anchor="middle">₱</text>
      <ellipse cx="-4" cy="-2" rx="7" ry="2.8" fill="rgba(255,255,255,0.32)" transform="rotate(-8)"/>
    </g>

    <!-- Big coin 3 (right trace, tumbling) -->
    <g transform="translate(238,270) rotate(-18)" filter="url(#softGlow)">
      <ellipse rx="14" ry="6" cy="6" fill="#6b4f0a"/>
      <ellipse rx="14" ry="6" cy="4.8" fill="#8b6914"/>
      <ellipse rx="14" ry="6" cy="3.8" fill="url(#coinEdge)"/>
      <line x1="-11" y1="3.8" x2="-11" y2="6" stroke="#5a4008" stroke-width="0.9"/>
      <line x1="-7" y1="4.5" x2="-7" y2="6.7" stroke="#5a4008" stroke-width="0.9"/>
      <line x1="-3" y1="4.8" x2="-3" y2="7" stroke="#5a4008" stroke-width="0.9"/>
      <line x1="1" y1="4.8" x2="1" y2="7" stroke="#5a4008" stroke-width="0.9"/>
      <line x1="5" y1="4.5" x2="5" y2="6.7" stroke="#5a4008" stroke-width="0.9"/>
      <line x1="9" y1="3.8" x2="9" y2="6" stroke="#5a4008" stroke-width="0.9"/>
      <ellipse rx="14" ry="6" fill="url(#coinTopBig)"/>
      <ellipse rx="14" ry="6" fill="none" stroke="#b8860b" stroke-width="1.5"/>
      <ellipse rx="10.5" ry="4.3" fill="none" stroke="rgba(180,130,30,0.4)" stroke-width="0.7"/>
      <text y="2.3" font-family="'Arial Black',Arial,sans-serif" font-weight="900" font-size="7.5" fill="#6b4f0a" fill-opacity="0.85" text-anchor="middle">₱</text>
      <ellipse cx="-3.5" cy="-1.5" rx="6" ry="2.3" fill="rgba(255,255,255,0.28)" transform="rotate(-10)"/>
    </g>

    <!-- Lens glare -->
    <ellipse cx="152" cy="260" rx="32" ry="14" fill="rgba(255,255,255,0.2)" transform="rotate(-32,152,260)"/>
  </g>

  <!-- Glass reflections -->
  <path d="M108,248 a104,104,0,0,1,100,-40" fill="none" stroke="rgba(255,255,255,0.6)" stroke-width="9" stroke-linecap="round"/>
  <path d="M124,262 a88,88,0,0,1,64,-30" fill="none" stroke="rgba(255,255,255,0.22)" stroke-width="5" stroke-linecap="round"/>
  <circle cx="140" cy="242" r="6" fill="white" opacity="0.45" filter="url(#softGlow)"/>
</svg>
