<svg xmlns="http://www.w3.org/2000/svg" viewBox="0 0 512 512">
  <defs>
    <linearGradient id="bg" x1="0%" y1="0%" x2="100%" y2="100%">
      <stop offset="0%" stop-color="#082f23"/>
      <stop offset="45%" stop-color="#0f766e"/>
      <stop offset="100%" stop-color="#065f46"/>
    </linearGradient>
    <linearGradient id="billGrad" x1="0%" y1="0%" x2="100%" y2="100%">
      <stop offset="0%" stop-color="#86efac"/>
      <stop offset="50%" stop-color="#22c55e"/>
      <stop offset="100%" stop-color="#15803d"/>
    </linearGradient>
    <linearGradient id="traceGrad" x1="0%" y1="0%" x2="100%" y2="100%">
      <stop offset="0%" stop-color="#fde68a"/>
      <stop offset="100%" stop-color="#f59e0b"/>
    </linearGradient>
    <linearGradient id="billShine" x1="0%" y1="0%" x2="0%" y2="100%">
      <stop offset="0%" stop-color="#ffffff" stop-opacity="0.32"/>
      <stop offset="100%" stop-color="#ffffff" stop-opacity="0"/>
    </linearGradient>
    <radialGradient id="coinOuter" cx="50%" cy="45%" r="55%">
      <stop offset="0%" stop-color="#ffca28"/>
      <stop offset="60%" stop-color="#e6a100"/>
      <stop offset="100%" stop-color="#b8860b"/>
    </radialGradient>
    <radialGradient id="coinMiddle" cx="48%" cy="42%" r="55%">
      <stop offset="0%" stop-color="#ffd54f"/>
      <stop offset="50%" stop-color="#ffca28"/>
      <stop offset="100%" stop-color="#e6a100"/>
    </radialGradient>
    <radialGradient id="coinInner" cx="45%" cy="40%" r="55%">
      <stop offset="0%" stop-color="#ffffff"/>
      <stop offset="20%" stop-color="#fff9c4"/>
      <stop offset="60%" stop-color="#ffd54f"/>
      <stop offset="100%" stop-color="#ffca28"/>
    </radialGradient>
    <linearGradient id="stackEdge" x1="0%" y1="0%" x2="0%" y2="100%">
      <stop offset="0%" stop-color="#ffd54f"/>
      <stop offset="50%" stop-color="#ffca28"/>
      <stop offset="100%" stop-color="#e6a100"/>
    </linearGradient>
    <radialGradient id="coinOuterBig" cx="50%" cy="45%" r="55%">
      <stop offset="0%" stop-color="#ffca28"/>
      <stop offset="60%" stop-color="#e6a100"/>
      <stop offset="100%" stop-color="#b8860b"/>
    </radialGradient>
    <radialGradient id="coinMiddleBig" cx="48%" cy="42%" r="55%">
      <stop offset="0%" stop-color="#ffd54f"/>
      <stop offset="50%" stop-color="#ffca28"/>
      <stop offset="100%" stop-color="#e6a100"/>
    </radialGradient>
    <radialGradient id="coinInnerBig" cx="42%" cy="38%" r="58%">
      <stop offset="0%" stop-color="#ffffff"/>
      <stop offset="15%" stop-color="#fffde7"/>
      <stop offset="35%" stop-color="#fff59d"/>
      <stop offset="60%" stop-color="#ffd54f"/>
      <stop offset="85%" stop-color="#ffca28"/>
      <stop offset="100%" stop-color="#e6a100"/>
    </radialGradient>
    <radialGradient id="lensGlass" cx="38%" cy="32%" r="68%">
      <stop offset="0%" stop-color="#e0f2fe" stop-opacity="0.28"/>
      <stop offset="35%" stop-color="#7dd3fc" stop-opacity="0.14"/>
      <stop offset="70%" stop-color="#0369a1" stop-opacity="0.12"/>
      <stop offset="100%" stop-color="#0c4a6e" stop-opacity="0.22"/>
    </radialGradient>
    <radialGradient id="lensVignette" cx="50%" cy="50%" r="50%">
      <stop offset="55%" stop-color="#000000" stop-opacity="0"/>
      <stop offset="100%" stop-color="#000000" stop-opacity="0.2"/>
    </radialGradient>
    <linearGradient id="ringGrad" x1="10%" y1="0%" x2="90%" y2="100%">
      <stop offset="0%" stop-color="#f1f5f9"/>
      <stop offset="15%" stop-color="#e2e8f0"/>
      <stop offset="35%" stop-color="#cbd5e1"/>
      <stop offset="50%" stop-color="#94a3b8"/>
      <stop offset="70%" stop-color="#64748b"/>
      <stop offset="85%" stop-color="#475569"/>
      <stop offset="100%" stop-color="#334155"/>
    </linearGradient>
    <linearGradient id="ringInner" x1="90%" y1="100%" x2="10%" y2="0%">
      <stop offset="0%" stop-color="#cbd5e1" stop-opacity="0.6"/>
      <stop offset="50%" stop-color="#64748b" stop-opacity="0.3"/>
      <stop offset="100%" stop-color="#e2e8f0" stop-opacity="0.5"/>
    </linearGradient>
    <linearGradient id="ringHL" x1="0%" y1="0%" x2="100%" y2="100%">
      <stop offset="0%" stop-color="#ffffff" stop-opacity="1"/>
      <stop offset="100%" stop-color="#ffffff" stop-opacity="0"/>
    </linearGradient>
    <linearGradient id="handleGrad" x1="0%" y1="0%" x2="100%" y2="100%">
      <stop offset="0%" stop-color="#3f3f46"/>
      <stop offset="30%" stop-color="#27272a"/>
      <stop offset="70%" stop-color="#1c1c1e"/>
      <stop offset="100%" stop-color="#18181b"/>
    </linearGradient>
    <linearGradient id="handleShine" x1="0%" y1="0%" x2="100%" y2="100%">
      <stop offset="0%" stop-color="#ffffff" stop-opacity="0.25"/>
      <stop offset="100%" stop-color="#ffffff" stop-opacity="0"/>
    </linearGradient>
    <linearGradient id="bandGrad" x1="0%" y1="0%" x2="0%" y2="100%">
      <stop offset="0%" stop-color="#fde68a"/>
      <stop offset="40%" stop-color="#fbbf24"/>
      <stop offset="70%" stop-color="#f59e0b"/>
      <stop offset="100%" stop-color="#b45309"/>
    </linearGradient>
    <linearGradient id="gripGrad" x1="0%" y1="0%" x2="100%" y2="100%">
      <stop offset="0%" stop-color="#292524"/>
      <stop offset="50%" stop-color="#1c1917"/>
      <stop offset="100%" stop-color="#0c0a09"/>
    </linearGradient>
    <filter id="shadow" x="-20%" y="-20%" width="140%" height="140%">
      <feDropShadow dx="2" dy="4" stdDeviation="6" flood-color="#000" flood-opacity="0.45"/>
    </filter>
    <filter id="glow" x="-40%" y="-40%" width="180%" height="180%">
      <feGaussianBlur stdDeviation="4" result="blur"/>
      <feMerge><feMergeNode in="blur"/><feMergeNode in="SourceGraphic"/></feMerge>
    </filter>
    <filter id="softGlow" x="-30%" y="-30%" width="160%" height="160%">
      <feGaussianBlur stdDeviation="3" result="blur"/>
      <feMerge><feMergeNode in="blur"/><feMergeNode in="SourceGraphic"/></feMerge>
    </filter>
    <filter id="coinShadow" x="-30%" y="-30%" width="160%" height="160%">
      <feDropShadow dx="1" dy="2" stdDeviation="2" flood-color="#000" flood-opacity="0.4"/>
    </filter>
    <!-- Bulge/spherize filter for convex lens magnification -->
    <filter id="bulge" x="-10%" y="-10%" width="120%" height="120%">
      <feGaussianBlur in="SourceGraphic" stdDeviation="0" result="src"/>
      <!-- Displacement map using a radial gradient to push pixels outward from center -->
      <feImage href="data:image/svg+xml,%3Csvg xmlns='http://www.w3.org/2000/svg' width='200' height='200'%3E%3Cdefs%3E%3CradialGradient id='b' cx='50%25' cy='50%25' r='50%25'%3E%3Cstop offset='0%25' stop-color='%23808080'/%3E%3Cstop offset='100%25' stop-color='%23606060'/%3E%3C/radialGradient%3E%3C/defs%3E%3Ccircle cx='100' cy='100' r='100' fill='url(%23b)'/%3E%3C/svg%3E" result="map" x="0%" y="0%" width="100%" height="100%"/>
      <feDisplacementMap in="src" in2="map" scale="18" xChannelSelector="R" yChannelSelector="G" result="bulged"/>
    </filter>
  </defs>

  <!-- Background -->
  <rect width="512" height="512" rx="108" ry="108" fill="url(#bg)"/>
  <radialGradient id="bgGlow" cx="30%" cy="22%" r="50%">
    <stop offset="0%" stop-color="#34d399" stop-opacity="0.08"/>
    <stop offset="100%" stop-color="#ffffff" stop-opacity="0"/>
  </radialGradient>
  <rect width="512" height="512" rx="108" ry="108" fill="url(#bgGlow)"/>

  <!-- ═══ STACKED BILLS (3 widely fanned, bigger, flying away) ═══ -->
  <g transform="translate(376,56) rotate(-15) scale(0.58)" filter="url(#shadow)">
    <!-- Wings on the stack -->
    <path d="M-90,0 C-126,-30 -170,-34 -192,-14 C-170,-20 -128,-6 -106,8Z" fill="white" opacity="0.65"/>
    <path d="M-90,14 C-120,-6 -164,-4 -186,18 C-162,8 -122,18 -100,30Z" fill="white" opacity="0.4"/>
    <path d="M90,0 C126,-30 170,-34 192,-14 C170,-20 128,-6 106,8Z" fill="white" opacity="0.65"/>
    <path d="M90,14 C120,-6 164,-4 186,18 C162,8 122,18 100,30Z" fill="white" opacity="0.4"/>

    <!-- Bill 3 (back — widely fanned, darker green) -->
    <g transform="translate(-16,-22) rotate(12)">
      <rect x="-86" y="-48" width="172" height="96" rx="13" fill="#15803d"/>
      <rect x="-86" y="-48" width="172" height="96" rx="13" fill="none" stroke="#fbbf24" stroke-width="2" opacity="0.45"/>
      <rect x="-72" y="-34" width="144" height="68" rx="8" fill="none" stroke="rgba(255,255,255,0.12)" stroke-width="1"/>
    </g>

    <!-- Bill 2 (middle — medium fan) -->
    <g transform="translate(-8,-11) rotate(6)">
      <rect x="-86" y="-48" width="172" height="96" rx="13" fill="#16a34a"/>
      <rect x="-86" y="-48" width="172" height="96" rx="13" fill="none" stroke="#fbbf24" stroke-width="2" opacity="0.55"/>
      <rect x="-86" y="-48" width="172" height="48" rx="13" fill="url(#billShine)" opacity="0.4"/>
      <rect x="-72" y="-34" width="144" height="68" rx="8" fill="none" stroke="rgba(255,255,255,0.15)" stroke-width="1"/>
    </g>

    <!-- Bill 1 (front — full detail) -->
    <rect x="-86" y="-48" width="172" height="96" rx="13" fill="url(#billGrad)"/>
    <rect x="-86" y="-48" width="172" height="96" rx="13" fill="none" stroke="#fbbf24" stroke-width="2.5" opacity="0.75"/>
    <rect x="-86" y="-48" width="172" height="48" rx="13" fill="url(#billShine)"/>
    <rect x="-72" y="-34" width="144" height="68" rx="8" fill="none" stroke="rgba(255,255,255,0.22)" stroke-width="1.5"/>
    <circle cx="0" cy="0" r="34" fill="rgba(255,255,255,0.1)" stroke="rgba(255,255,255,0.28)" stroke-width="2"/>
    <text x="0" y="14" font-family="'Arial Black',Arial,sans-serif" font-weight="900" font-size="42" fill="white" fill-opacity="0.95" text-anchor="middle">₱</text>
    <text x="-58" y="-26" font-family="Arial" font-weight="700" font-size="14" fill="rgba(255,255,255,0.7)">100</text>
    <text x="58" y="40" font-family="Arial" font-weight="700" font-size="14" fill="rgba(255,255,255,0.7)" text-anchor="end">100</text>
  </g>

  <!-- ═══ TRACE ═══ -->
  <path d="M362,108 Q330,160 290,230 Q254,286 224,316" fill="none" stroke="#f59e0b" stroke-width="16" stroke-linecap="round" stroke-dasharray="15,10" opacity="0.14" filter="url(#glow)"/>
  <path d="M362,108 Q330,160 290,230 Q254,286 224,316" fill="none" stroke="url(#traceGrad)" stroke-width="6" stroke-linecap="round" stroke-dasharray="14,9" filter="url(#softGlow)"/>
  <path d="M374,102 Q342,154 302,224 Q266,280 236,310" fill="none" stroke="rgba(253,230,138,0.35)" stroke-width="3" stroke-linecap="round" stroke-dasharray="10,12"/>

  <!-- ═══ FOUR TRAIL COINS (along the trace, dimmed) ═══ -->
  <!-- Coin 1 — near bill, largest -->
  <g transform="translate(344,134)" filter="url(#coinShadow)" opacity="0.85">
    <circle r="11" fill="url(#coinOuter)"/>
    <circle r="11" fill="none" stroke="#7a5a0a" stroke-width="1.5"/>
    <circle r="9" fill="url(#coinMiddle)"/>
    <circle r="6.8" fill="url(#coinInner)"/>
    <text y="3" font-family="'Arial Black',Arial,sans-serif" font-weight="900" font-size="9" fill="#b8860b" text-anchor="middle">₱</text>
    <path d="M-4,-5.5 A6.8,6.8,0,0,1,5,-3.8" fill="none" stroke="rgba(255,255,255,0.45)" stroke-width="2" stroke-linecap="round"/>
    <circle cx="-2.2" cy="-4" r="1.6" fill="white" opacity="0.38"/>
  </g>
  <!-- Coin 2 -->
  <g transform="translate(322,172)" filter="url(#coinShadow)" opacity="0.78">
    <circle r="10" fill="url(#coinOuter)"/>
    <circle r="10" fill="none" stroke="#7a5a0a" stroke-width="1.3"/>
    <circle r="8" fill="url(#coinMiddle)"/>
    <circle r="6" fill="url(#coinInner)"/>
    <text y="2.8" font-family="'Arial Black',Arial,sans-serif" font-weight="900" font-size="8" fill="#b8860b" text-anchor="middle">₱</text>
    <path d="M-3.5,-5 A6,6,0,0,1,4.5,-3.5" fill="none" stroke="rgba(255,255,255,0.42)" stroke-width="1.8" stroke-linecap="round"/>
    <circle cx="-2" cy="-3.5" r="1.5" fill="white" opacity="0.35"/>
  </g>
  <!-- Coin 3 -->
  <g transform="translate(298,214)" filter="url(#coinShadow)" opacity="0.72">
    <circle r="9" fill="url(#coinOuter)"/>
    <circle r="9" fill="none" stroke="#7a5a0a" stroke-width="1.2"/>
    <circle r="7.2" fill="url(#coinMiddle)"/>
    <circle r="5.5" fill="url(#coinInner)"/>
    <text y="2.5" font-family="'Arial Black',Arial,sans-serif" font-weight="900" font-size="7" fill="#b8860b" text-anchor="middle">₱</text>
    <path d="M-3,-4.5 A5.5,5.5,0,0,1,4,-3" fill="none" stroke="rgba(255,255,255,0.4)" stroke-width="1.5" stroke-linecap="round"/>
    <circle cx="-1.8" cy="-3.2" r="1.3" fill="white" opacity="0.32"/>
  </g>
  <!-- Coin 4 — near glass, smallest -->
  <g transform="translate(272,258)" filter="url(#coinShadow)" opacity="0.65">
    <circle r="7.5" fill="url(#coinOuter)"/>
    <circle r="7.5" fill="none" stroke="#7a5a0a" stroke-width="1"/>
    <circle r="6" fill="url(#coinMiddle)"/>
    <circle r="4.5" fill="url(#coinInner)"/>
    <text y="2" font-family="'Arial Black',Arial,sans-serif" font-weight="900" font-size="6" fill="#b8860b" text-anchor="middle">₱</text>
    <path d="M-2.5,-3.8 A4.5,4.5,0,0,1,3.2,-2.5" fill="none" stroke="rgba(255,255,255,0.35)" stroke-width="1.3" stroke-linecap="round"/>
    <circle cx="-1.5" cy="-2.6" r="1.1" fill="white" opacity="0.28"/>
  </g>

  <!-- ═══ MAGNIFYING GLASS (realistic chrome style) ═══ -->

  <!-- Handle shadow -->
  <line x1="286" y1="398" x2="430" y2="486" stroke="#000" stroke-width="40" stroke-linecap="round" opacity="0.25"/>

  <!-- Handle — glossy black barrel (longer) -->
  <line x1="282" y1="392" x2="426" y2="484" stroke="#0a0a0a" stroke-width="38" stroke-linecap="round"/>
  <line x1="282" y1="392" x2="426" y2="484" stroke="url(#handleGrad)" stroke-width="34" stroke-linecap="round"/>
  <!-- Handle left-edge highlight (glossy shine) -->
  <line x1="278" y1="396" x2="420" y2="480" stroke="rgba(255,255,255,0.22)" stroke-width="6" stroke-linecap="round"/>
  <!-- Handle center shine (subtle) -->
  <line x1="284" y1="394" x2="424" y2="482" stroke="rgba(255,255,255,0.08)" stroke-width="14" stroke-linecap="round"/>

  <!-- Handle end cap (knurled metal) -->
  <circle cx="426" cy="484" r="20" fill="#1c1917"/>
  <circle cx="426" cy="484" r="20" fill="none" stroke="#44403c" stroke-width="2"/>
  <circle cx="426" cy="484" r="16" fill="none" stroke="rgba(255,255,255,0.08)" stroke-width="1.5" stroke-dasharray="3,3"/>

  <!-- Chrome connector (silver, not gold — like the reference) -->
  <linearGradient id="connectorGrad" x1="0%" y1="0%" x2="100%" y2="100%">
    <stop offset="0%" stop-color="#e2e8f0"/>
    <stop offset="30%" stop-color="#cbd5e1"/>
    <stop offset="60%" stop-color="#94a3b8"/>
    <stop offset="100%" stop-color="#64748b"/>
  </linearGradient>
  <line x1="270" y1="382" x2="292" y2="396" stroke="#0f172a" stroke-width="42" stroke-linecap="butt"/>
  <line x1="270" y1="382" x2="292" y2="396" stroke="url(#connectorGrad)" stroke-width="38" stroke-linecap="butt"/>
  <!-- Connector shine -->
  <line x1="270" y1="380" x2="286" y2="390" stroke="rgba(255,255,255,0.4)" stroke-width="6" stroke-linecap="round"/>
  <!-- Connector edge lines -->
  <line x1="268" y1="384" x2="268" y2="380" stroke="rgba(255,255,255,0.15)" stroke-width="1"/>
  <line x1="294" y1="398" x2="294" y2="394" stroke="rgba(0,0,0,0.2)" stroke-width="1"/>

  <!-- Ring shadow -->
  <circle cx="198" cy="315" r="118" fill="rgba(0,0,0,0.3)"/>

  <!-- Outer chrome ring — sleek and thin like the reference -->
  <circle cx="194" cy="310" r="114" fill="none" stroke="#0f172a" stroke-width="2.5"/>
  <!-- Main chrome ring body -->
  <circle cx="194" cy="310" r="112" fill="none" stroke="url(#ringGrad)" stroke-width="22"/>
  <!-- Inner chrome bevel -->
  <circle cx="194" cy="310" r="112" fill="none" stroke="url(#ringInner)" stroke-width="8"/>
  <!-- Bright top-left highlight arc -->
  <circle cx="194" cy="310" r="112" fill="none"
          stroke="url(#ringHL)" stroke-width="12"
          stroke-dasharray="170 540" stroke-dashoffset="0"
          stroke-linecap="round"/>
  <!-- Subtle bottom-right reflected light -->
  <circle cx="194" cy="310" r="112" fill="none"
          stroke="rgba(255,255,255,0.12)" stroke-width="5"
          stroke-dasharray="60 650" stroke-dashoffset="-290"
          stroke-linecap="round"/>
  <!-- Inner dark edge -->
  <circle cx="194" cy="310" r="101" fill="none" stroke="#1e293b" stroke-width="2.5"/>
  <!-- Inner chrome lip -->
  <circle cx="194" cy="310" r="99.5" fill="none" stroke="rgba(203,213,225,0.25)" stroke-width="1.5"/>

  <!-- Lens glass — with magnification/convex lens effect -->
  <circle cx="194" cy="310" r="98" fill="rgba(240,249,255,0.06)"/>
  <circle cx="194" cy="310" r="98" fill="url(#lensGlass)"/>

  <!-- ═══ STRONG CONVEX/BULGING GLASS EFFECT ═══ -->

  <!-- Bright center hotspot (convex lens focuses light strongly in center) -->
  <radialGradient id="lensMagnify" cx="46%" cy="44%" r="40%">
    <stop offset="0%" stop-color="#ffffff" stop-opacity="0.22"/>
    <stop offset="25%" stop-color="#e0f7fa" stop-opacity="0.12"/>
    <stop offset="50%" stop-color="#b2ebf2" stop-opacity="0.04"/>
    <stop offset="100%" stop-color="#000000" stop-opacity="0"/>
  </radialGradient>
  <circle cx="194" cy="310" r="98" fill="url(#lensMagnify)"/>

  <!-- Very heavy edge darkening (thick convex glass = very dark rim) -->
  <radialGradient id="lensEdgeDark" cx="50%" cy="50%" r="50%">
    <stop offset="0%" stop-color="#000000" stop-opacity="0"/>
    <stop offset="42%" stop-color="#000000" stop-opacity="0"/>
    <stop offset="62%" stop-color="#0c4a6e" stop-opacity="0.18"/>
    <stop offset="78%" stop-color="#0a3d5c" stop-opacity="0.38"/>
    <stop offset="90%" stop-color="#082f23" stop-opacity="0.55"/>
    <stop offset="100%" stop-color="#041f17" stop-opacity="0.7"/>
  </radialGradient>
  <circle cx="194" cy="310" r="98" fill="url(#lensEdgeDark)"/>

  <!-- Large convex dome highlight (off-center bright area = curved glass) -->
  <radialGradient id="domeHL" cx="40%" cy="36%" r="48%">
    <stop offset="0%" stop-color="#ffffff" stop-opacity="0.18"/>
    <stop offset="30%" stop-color="#ffffff" stop-opacity="0.08"/>
    <stop offset="60%" stop-color="#ffffff" stop-opacity="0.02"/>
    <stop offset="100%" stop-color="#ffffff" stop-opacity="0"/>
  </radialGradient>
  <circle cx="178" cy="292" r="75" fill="url(#domeHL)"/>

  <!-- Wide curved refraction band (thick arc = glass dome catching light) -->
  <path d="M124,268 Q168,244 224,256 Q258,266 268,286" fill="none" stroke="rgba(255,255,255,0.16)" stroke-width="24" stroke-linecap="round"/>
  <!-- Inner refraction -->
  <path d="M140,278 Q178,260 222,270 Q248,278 256,292" fill="none" stroke="rgba(255,255,255,0.08)" stroke-width="12" stroke-linecap="round"/>
  <!-- Tight bright arc (sharp highlight on dome peak) -->
  <path d="M152,272 Q180,258 212,266" fill="none" stroke="rgba(255,255,255,0.2)" stroke-width="4" stroke-linecap="round"/>

  <!-- Specular bright spot cluster (light hitting dome peak) -->
  <circle cx="172" cy="264" r="10" fill="rgba(255,255,255,0.14)"/>
  <circle cx="170" cy="262" r="5" fill="rgba(255,255,255,0.28)"/>
  <circle cx="168" cy="260" r="2.5" fill="rgba(255,255,255,0.45)"/>

  <!-- Glass surface glare arcs (on the dome) -->
  <path d="M118,260 a96,96,0,0,1,88,-36" fill="none" stroke="rgba(255,255,255,0.35)" stroke-width="5" stroke-linecap="round"/>
  <path d="M132,270 a80,80,0,0,1,52,-22" fill="none" stroke="rgba(255,255,255,0.14)" stroke-width="3" stroke-linecap="round"/>

  <!-- ═══ INSIDE LENS: cartoon chunky coin stacks (magnified — scaled 1.08x) ═══ -->
  <clipPath id="lensClip">
    <circle cx="194" cy="310" r="97"/>
  </clipPath>
  <g clip-path="url(#lensClip)">

    <!-- Warm golden glow -->
    <radialGradient id="coinGlow" cx="50%" cy="55%" r="50%">
      <stop offset="0%" stop-color="#ffd54f" stop-opacity="0.2"/>
      <stop offset="60%" stop-color="#ffca28" stop-opacity="0.08"/>
      <stop offset="100%" stop-color="#f59e0b" stop-opacity="0"/>
    </radialGradient>
    <circle cx="190" cy="310" r="80" fill="url(#coinGlow)"/>

    <!-- Cartoon coin colors: warm orange-gold like the reference -->
    <!-- Each coin layer = thick edge (dark orange) + top face (bright yellow-orange) -->
    <!-- Diagonal shine stripe on top coins for cartoon look -->

    <!-- ═══ SCATTERED FLAT COINS (bottom, behind stacks) ═══ -->
    <!-- Flat coin bottom-left -->
    <g transform="translate(128,370)">
      <ellipse rx="18" ry="5" cy="3.5" fill="#c67b00"/>
      <ellipse rx="18" ry="5" fill="#e6a100"/>
      <ellipse rx="18" ry="5" fill="none" stroke="#a06000" stroke-width="1.5"/>
      <ellipse rx="13" ry="3.5" fill="none" stroke="rgba(255,200,40,0.4)" stroke-width="0.8"/>
      <text y="2" font-family="'Arial Black',Arial,sans-serif" font-weight="900" font-size="5.5" fill="#8b5e00" text-anchor="middle">₱</text>
    </g>
    <!-- Flat coin bottom-right -->
    <g transform="translate(248,372)">
      <ellipse rx="16" ry="4.5" cy="3" fill="#c67b00"/>
      <ellipse rx="16" ry="4.5" fill="#e6a100"/>
      <ellipse rx="16" ry="4.5" fill="none" stroke="#a06000" stroke-width="1.3"/>
      <ellipse rx="11.5" ry="3" fill="none" stroke="rgba(255,200,40,0.35)" stroke-width="0.7"/>
      <text y="1.8" font-family="'Arial Black',Arial,sans-serif" font-weight="900" font-size="5" fill="#8b5e00" text-anchor="middle">₱</text>
    </g>
    <!-- Flat coin bottom-center -->
    <g transform="translate(188,380)">
      <ellipse rx="15" ry="4" cy="2.5" fill="#c67b00"/>
      <ellipse rx="15" ry="4" fill="#d4a017"/>
      <ellipse rx="15" ry="4" fill="none" stroke="#a06000" stroke-width="1.2"/>
      <text y="1.5" font-family="'Arial Black',Arial,sans-serif" font-weight="900" font-size="4.5" fill="#8b5e00" text-anchor="middle">₱</text>
    </g>

    <!-- ═══ SHORT STACK (left, 4 coins) ═══ -->
    <g transform="translate(148,318)">
      <!-- Each layer: thick dark edge rect + ridge lines + bright top ellipse -->
      <!-- Layer 4 (bottom) -->
      <ellipse cy="30" rx="26" ry="8.5" fill="#a06000"/>
      <rect x="-26" y="22" width="52" height="8" fill="#c67b00" rx="1"/>
      <line x1="-23" y1="22" x2="-23" y2="30" stroke="#e6a100" stroke-width="2" opacity="0.5"/><line x1="-17" y1="22" x2="-17" y2="30" stroke="#e6a100" stroke-width="2" opacity="0.5"/><line x1="-11" y1="22" x2="-11" y2="30" stroke="#e6a100" stroke-width="2" opacity="0.5"/><line x1="-5" y1="22" x2="-5" y2="30" stroke="#e6a100" stroke-width="2" opacity="0.5"/><line x1="1" y1="22" x2="1" y2="30" stroke="#e6a100" stroke-width="2" opacity="0.5"/><line x1="7" y1="22" x2="7" y2="30" stroke="#e6a100" stroke-width="2" opacity="0.5"/><line x1="13" y1="22" x2="13" y2="30" stroke="#e6a100" stroke-width="2" opacity="0.5"/><line x1="19" y1="22" x2="19" y2="30" stroke="#e6a100" stroke-width="2" opacity="0.5"/>
      <ellipse cy="22" rx="26" ry="8.5" fill="#ffb300"/>
      <!-- Layer 3 -->
      <ellipse cy="18" rx="26" ry="8.5" fill="#a06000"/>
      <rect x="-26" y="10" width="52" height="8" fill="#c67b00" rx="1"/>
      <line x1="-23" y1="10" x2="-23" y2="18" stroke="#e6a100" stroke-width="2" opacity="0.5"/><line x1="-17" y1="10" x2="-17" y2="18" stroke="#e6a100" stroke-width="2" opacity="0.5"/><line x1="-11" y1="10" x2="-11" y2="18" stroke="#e6a100" stroke-width="2" opacity="0.5"/><line x1="-5" y1="10" x2="-5" y2="18" stroke="#e6a100" stroke-width="2" opacity="0.5"/><line x1="1" y1="10" x2="1" y2="18" stroke="#e6a100" stroke-width="2" opacity="0.5"/><line x1="7" y1="10" x2="7" y2="18" stroke="#e6a100" stroke-width="2" opacity="0.5"/><line x1="13" y1="10" x2="13" y2="18" stroke="#e6a100" stroke-width="2" opacity="0.5"/><line x1="19" y1="10" x2="19" y2="18" stroke="#e6a100" stroke-width="2" opacity="0.5"/>
      <ellipse cy="10" rx="26" ry="8.5" fill="#ffb300"/>
      <!-- Layer 2 -->
      <ellipse cy="6" rx="26" ry="8.5" fill="#a06000"/>
      <rect x="-26" y="-2" width="52" height="8" fill="#c67b00" rx="1"/>
      <line x1="-23" y1="-2" x2="-23" y2="6" stroke="#e6a100" stroke-width="2" opacity="0.5"/><line x1="-17" y1="-2" x2="-17" y2="6" stroke="#e6a100" stroke-width="2" opacity="0.5"/><line x1="-11" y1="-2" x2="-11" y2="6" stroke="#e6a100" stroke-width="2" opacity="0.5"/><line x1="-5" y1="-2" x2="-5" y2="6" stroke="#e6a100" stroke-width="2" opacity="0.5"/><line x1="1" y1="-2" x2="1" y2="6" stroke="#e6a100" stroke-width="2" opacity="0.5"/><line x1="7" y1="-2" x2="7" y2="6" stroke="#e6a100" stroke-width="2" opacity="0.5"/><line x1="13" y1="-2" x2="13" y2="6" stroke="#e6a100" stroke-width="2" opacity="0.5"/><line x1="19" y1="-2" x2="19" y2="6" stroke="#e6a100" stroke-width="2" opacity="0.5"/>
      <ellipse cy="-2" rx="26" ry="8.5" fill="#ffb300"/>
      <!-- Top coin with ₱ face + diagonal shine -->
      <ellipse cy="-6" rx="26" ry="8.5" fill="#a06000"/>
      <rect x="-26" y="-14" width="52" height="8" fill="#c67b00" rx="1"/>
      <line x1="-23" y1="-14" x2="-23" y2="-6" stroke="#e6a100" stroke-width="2" opacity="0.5"/><line x1="-17" y1="-14" x2="-17" y2="-6" stroke="#e6a100" stroke-width="2" opacity="0.5"/><line x1="-11" y1="-14" x2="-11" y2="-6" stroke="#e6a100" stroke-width="2" opacity="0.5"/><line x1="-5" y1="-14" x2="-5" y2="-6" stroke="#e6a100" stroke-width="2" opacity="0.5"/><line x1="1" y1="-14" x2="1" y2="-6" stroke="#e6a100" stroke-width="2" opacity="0.5"/><line x1="7" y1="-14" x2="7" y2="-6" stroke="#e6a100" stroke-width="2" opacity="0.5"/><line x1="13" y1="-14" x2="13" y2="-6" stroke="#e6a100" stroke-width="2" opacity="0.5"/><line x1="19" y1="-14" x2="19" y2="-6" stroke="#e6a100" stroke-width="2" opacity="0.5"/>
      <ellipse cy="-14" rx="26" ry="8.5" fill="#ffc107"/>
      <ellipse cy="-14" rx="26" ry="8.5" fill="none" stroke="#a06000" stroke-width="1.8"/>
      <ellipse cy="-14" rx="20" ry="6.2" fill="#ffca28"/>
      <ellipse cy="-14" rx="15" ry="4.5" fill="#ffd54f"/>
      <text y="-11.5" font-family="'Arial Black',Arial,sans-serif" font-weight="900" font-size="7" fill="#8b5e00" text-anchor="middle">₱</text>
      <!-- Diagonal shine stripe -->
      <path d="M-8,-20 L4,-14 L-2,-10 L-14,-16Z" fill="rgba(255,255,255,0.25)"/>
    </g>

    <!-- ═══ TALL STACK (right-center, 7 coins) ═══ -->
    <g transform="translate(204,296)">
      <!-- Layer 7 (bottom) -->
      <ellipse cy="48" rx="26" ry="8.5" fill="#a06000"/>
      <rect x="-26" y="40" width="52" height="8" fill="#c67b00" rx="1"/>
      <line x1="-23" y1="40" x2="-23" y2="48" stroke="#e6a100" stroke-width="2" opacity="0.5"/><line x1="-17" y1="40" x2="-17" y2="48" stroke="#e6a100" stroke-width="2" opacity="0.5"/><line x1="-11" y1="40" x2="-11" y2="48" stroke="#e6a100" stroke-width="2" opacity="0.5"/><line x1="-5" y1="40" x2="-5" y2="48" stroke="#e6a100" stroke-width="2" opacity="0.5"/><line x1="1" y1="40" x2="1" y2="48" stroke="#e6a100" stroke-width="2" opacity="0.5"/><line x1="7" y1="40" x2="7" y2="48" stroke="#e6a100" stroke-width="2" opacity="0.5"/><line x1="13" y1="40" x2="13" y2="48" stroke="#e6a100" stroke-width="2" opacity="0.5"/><line x1="19" y1="40" x2="19" y2="48" stroke="#e6a100" stroke-width="2" opacity="0.5"/>
      <ellipse cy="40" rx="26" ry="8.5" fill="#ffb300"/>
      <!-- Layer 6 -->
      <ellipse cy="36" rx="26" ry="8.5" fill="#a06000"/>
      <rect x="-26" y="28" width="52" height="8" fill="#c67b00" rx="1"/>
      <line x1="-23" y1="28" x2="-23" y2="36" stroke="#e6a100" stroke-width="2" opacity="0.5"/><line x1="-17" y1="28" x2="-17" y2="36" stroke="#e6a100" stroke-width="2" opacity="0.5"/><line x1="-11" y1="28" x2="-11" y2="36" stroke="#e6a100" stroke-width="2" opacity="0.5"/><line x1="-5" y1="28" x2="-5" y2="36" stroke="#e6a100" stroke-width="2" opacity="0.5"/><line x1="1" y1="28" x2="1" y2="36" stroke="#e6a100" stroke-width="2" opacity="0.5"/><line x1="7" y1="28" x2="7" y2="36" stroke="#e6a100" stroke-width="2" opacity="0.5"/><line x1="13" y1="28" x2="13" y2="36" stroke="#e6a100" stroke-width="2" opacity="0.5"/><line x1="19" y1="28" x2="19" y2="36" stroke="#e6a100" stroke-width="2" opacity="0.5"/>
      <ellipse cy="28" rx="26" ry="8.5" fill="#ffb300"/>
      <!-- Layer 5 -->
      <ellipse cy="24" rx="26" ry="8.5" fill="#a06000"/>
      <rect x="-26" y="16" width="52" height="8" fill="#c67b00" rx="1"/>
      <line x1="-23" y1="16" x2="-23" y2="24" stroke="#e6a100" stroke-width="2" opacity="0.5"/><line x1="-17" y1="16" x2="-17" y2="24" stroke="#e6a100" stroke-width="2" opacity="0.5"/><line x1="-11" y1="16" x2="-11" y2="24" stroke="#e6a100" stroke-width="2" opacity="0.5"/><line x1="-5" y1="16" x2="-5" y2="24" stroke="#e6a100" stroke-width="2" opacity="0.5"/><line x1="1" y1="16" x2="1" y2="24" stroke="#e6a100" stroke-width="2" opacity="0.5"/><line x1="7" y1="16" x2="7" y2="24" stroke="#e6a100" stroke-width="2" opacity="0.5"/><line x1="13" y1="16" x2="13" y2="24" stroke="#e6a100" stroke-width="2" opacity="0.5"/><line x1="19" y1="16" x2="19" y2="24" stroke="#e6a100" stroke-width="2" opacity="0.5"/>
      <ellipse cy="16" rx="26" ry="8.5" fill="#ffb300"/>
      <!-- Layer 4 -->
      <ellipse cy="12" rx="26" ry="8.5" fill="#a06000"/>
      <rect x="-26" y="4" width="52" height="8" fill="#c67b00" rx="1"/>
      <line x1="-23" y1="4" x2="-23" y2="12" stroke="#e6a100" stroke-width="2" opacity="0.5"/><line x1="-17" y1="4" x2="-17" y2="12" stroke="#e6a100" stroke-width="2" opacity="0.5"/><line x1="-11" y1="4" x2="-11" y2="12" stroke="#e6a100" stroke-width="2" opacity="0.5"/><line x1="-5" y1="4" x2="-5" y2="12" stroke="#e6a100" stroke-width="2" opacity="0.5"/><line x1="1" y1="4" x2="1" y2="12" stroke="#e6a100" stroke-width="2" opacity="0.5"/><line x1="7" y1="4" x2="7" y2="12" stroke="#e6a100" stroke-width="2" opacity="0.5"/><line x1="13" y1="4" x2="13" y2="12" stroke="#e6a100" stroke-width="2" opacity="0.5"/><line x1="19" y1="4" x2="19" y2="12" stroke="#e6a100" stroke-width="2" opacity="0.5"/>
      <ellipse cy="4" rx="26" ry="8.5" fill="#ffb300"/>
      <!-- Layer 3 -->
      <ellipse cy="0" rx="26" ry="8.5" fill="#a06000"/>
      <rect x="-26" y="-8" width="52" height="8" fill="#c67b00" rx="1"/>
      <line x1="-23" y1="-8" x2="-23" y2="0" stroke="#e6a100" stroke-width="2" opacity="0.5"/><line x1="-17" y1="-8" x2="-17" y2="0" stroke="#e6a100" stroke-width="2" opacity="0.5"/><line x1="-11" y1="-8" x2="-11" y2="0" stroke="#e6a100" stroke-width="2" opacity="0.5"/><line x1="-5" y1="-8" x2="-5" y2="0" stroke="#e6a100" stroke-width="2" opacity="0.5"/><line x1="1" y1="-8" x2="1" y2="0" stroke="#e6a100" stroke-width="2" opacity="0.5"/><line x1="7" y1="-8" x2="7" y2="0" stroke="#e6a100" stroke-width="2" opacity="0.5"/><line x1="13" y1="-8" x2="13" y2="0" stroke="#e6a100" stroke-width="2" opacity="0.5"/><line x1="19" y1="-8" x2="19" y2="0" stroke="#e6a100" stroke-width="2" opacity="0.5"/>
      <ellipse cy="-8" rx="26" ry="8.5" fill="#ffb300"/>
      <!-- Layer 2 -->
      <ellipse cy="-12" rx="26" ry="8.5" fill="#a06000"/>
      <rect x="-26" y="-20" width="52" height="8" fill="#c67b00" rx="1"/>
      <line x1="-23" y1="-20" x2="-23" y2="-12" stroke="#e6a100" stroke-width="2" opacity="0.5"/><line x1="-17" y1="-20" x2="-17" y2="-12" stroke="#e6a100" stroke-width="2" opacity="0.5"/><line x1="-11" y1="-20" x2="-11" y2="-12" stroke="#e6a100" stroke-width="2" opacity="0.5"/><line x1="-5" y1="-20" x2="-5" y2="-12" stroke="#e6a100" stroke-width="2" opacity="0.5"/><line x1="1" y1="-20" x2="1" y2="-12" stroke="#e6a100" stroke-width="2" opacity="0.5"/><line x1="7" y1="-20" x2="7" y2="-12" stroke="#e6a100" stroke-width="2" opacity="0.5"/><line x1="13" y1="-20" x2="13" y2="-12" stroke="#e6a100" stroke-width="2" opacity="0.5"/><line x1="19" y1="-20" x2="19" y2="-12" stroke="#e6a100" stroke-width="2" opacity="0.5"/>
      <ellipse cy="-20" rx="26" ry="8.5" fill="#ffb300"/>
      <!-- Top coin with ₱ face + diagonal shine -->
      <ellipse cy="-24" rx="26" ry="8.5" fill="#a06000"/>
      <rect x="-26" y="-32" width="52" height="8" fill="#c67b00" rx="1"/>
      <line x1="-23" y1="-32" x2="-23" y2="-24" stroke="#e6a100" stroke-width="2" opacity="0.5"/><line x1="-17" y1="-32" x2="-17" y2="-24" stroke="#e6a100" stroke-width="2" opacity="0.5"/><line x1="-11" y1="-32" x2="-11" y2="-24" stroke="#e6a100" stroke-width="2" opacity="0.5"/><line x1="-5" y1="-32" x2="-5" y2="-24" stroke="#e6a100" stroke-width="2" opacity="0.5"/><line x1="1" y1="-32" x2="1" y2="-24" stroke="#e6a100" stroke-width="2" opacity="0.5"/><line x1="7" y1="-32" x2="7" y2="-24" stroke="#e6a100" stroke-width="2" opacity="0.5"/><line x1="13" y1="-32" x2="13" y2="-24" stroke="#e6a100" stroke-width="2" opacity="0.5"/><line x1="19" y1="-32" x2="19" y2="-24" stroke="#e6a100" stroke-width="2" opacity="0.5"/>
      <ellipse cy="-32" rx="26" ry="8.5" fill="#ffc107"/>
      <ellipse cy="-32" rx="26" ry="8.5" fill="none" stroke="#a06000" stroke-width="1.8"/>
      <ellipse cy="-32" rx="20" ry="6.2" fill="#ffca28"/>
      <ellipse cy="-32" rx="15" ry="4.5" fill="#ffd54f"/>
      <text y="-29.5" font-family="'Arial Black',Arial,sans-serif" font-weight="900" font-size="7" fill="#8b5e00" text-anchor="middle">₱</text>
      <!-- Diagonal shine stripe -->
      <path d="M-8,-38 L4,-32 L-2,-28 L-14,-34Z" fill="rgba(255,255,255,0.25)"/>
    </g>

    <!-- ═══ FRONT LEANING COIN (face-up, overlapping stacks) ═══ -->
    <g transform="translate(240,334)">
      <circle r="28" fill="rgba(0,0,0,0.1)" cx="2" cy="2"/>
      <!-- Outer -->
      <circle r="26" fill="#e6a100"/>
      <circle r="26" fill="none" stroke="#8b5e00" stroke-width="3"/>
      <!-- Middle ring -->
      <circle r="21" fill="#ffb300"/>
      <!-- Inner face -->
      <circle r="16" fill="#ffc107"/>
      <!-- Bright center -->
      <circle r="11" fill="#ffd54f"/>
      <!-- ₱ sign -->
      <text y="6" font-family="'Arial Black',Arial,sans-serif" font-weight="900" font-size="20" fill="#8b5e00" text-anchor="middle">₱</text>
      <!-- Diagonal shine stripe -->
      <path d="M-10,-16 L6,-6 L-2,2 L-18,-8Z" fill="rgba(255,255,255,0.22)"/>
      <!-- Highlight crescent -->
      <path d="M-9,-13 A16,16,0,0,1,12,-8" fill="none" stroke="rgba(255,255,255,0.4)" stroke-width="3" stroke-linecap="round"/>
      <circle cx="-5" cy="-10" r="3" fill="white" opacity="0.35"/>
    </g>

    <!-- Lens glare -->
    <ellipse cx="148" cy="256" rx="28" ry="12" fill="rgba(255,255,255,0.14)" transform="rotate(-32,148,256)"/>
  </g>

  <!-- Specular dot on glass -->
  <circle cx="142" cy="248" r="5" fill="white" opacity="0.35" filter="url(#softGlow)"/>
</svg>
