<svg xmlns="http://www.w3.org/2000/svg" viewBox="0 0 512 512">
  <defs>
    <linearGradient id="bg" x1="0%" y1="0%" x2="100%" y2="100%">
      <stop offset="0%" stop-color="#082f23"/>
      <stop offset="45%" stop-color="#0f766e"/>
      <stop offset="100%" stop-color="#065f46"/>
    </linearGradient>
    <linearGradient id="billGrad" x1="0%" y1="0%" x2="100%" y2="100%">
      <stop offset="0%" stop-color="#86efac"/>
      <stop offset="50%" stop-color="#22c55e"/>
      <stop offset="100%" stop-color="#15803d"/>
    </linearGradient>
    <linearGradient id="traceGrad" x1="0%" y1="0%" x2="100%" y2="100%">
      <stop offset="0%" stop-color="#fde68a"/>
      <stop offset="100%" stop-color="#f59e0b"/>
    </linearGradient>
    <linearGradient id="billShine" x1="0%" y1="0%" x2="0%" y2="100%">
      <stop offset="0%" stop-color="#ffffff" stop-opacity="0.32"/>
      <stop offset="100%" stop-color="#ffffff" stop-opacity="0"/>
    </linearGradient>

    <radialGradient id="coinTop" cx="45%" cy="40%" r="55%">
      <stop offset="0%" stop-color="#fff9c4"/>
      <stop offset="25%" stop-color="#ffe066"/>
      <stop offset="55%" stop-color="#ffc107"/>
      <stop offset="80%" stop-color="#e6a100"/>
      <stop offset="100%" stop-color="#c68600"/>
    </radialGradient>
    <radialGradient id="coinTopBig" cx="45%" cy="40%" r="55%">
      <stop offset="0%" stop-color="#fffde7"/>
      <stop offset="20%" stop-color="#fff176"/>
      <stop offset="50%" stop-color="#ffc107"/>
      <stop offset="75%" stop-color="#e6a100"/>
      <stop offset="100%" stop-color="#b8860b"/>
    </radialGradient>
    <linearGradient id="coinEdge" x1="0%" y1="0%" x2="0%" y2="100%">
      <stop offset="0%" stop-color="#d4a017"/>
      <stop offset="30%" stop-color="#b8860b"/>
      <stop offset="60%" stop-color="#8b6914"/>
      <stop offset="100%" stop-color="#6b4f0a"/>
    </linearGradient>

    <radialGradient id="lensGlass" cx="38%" cy="32%" r="68%">
      <stop offset="0%" stop-color="#e0f2fe" stop-opacity="0.28"/>
      <stop offset="35%" stop-color="#7dd3fc" stop-opacity="0.14"/>
      <stop offset="70%" stop-color="#0369a1" stop-opacity="0.12"/>
      <stop offset="100%" stop-color="#0c4a6e" stop-opacity="0.22"/>
    </radialGradient>
    <radialGradient id="lensVignette" cx="50%" cy="50%" r="50%">
      <stop offset="55%" stop-color="#000000" stop-opacity="0"/>
      <stop offset="100%" stop-color="#000000" stop-opacity="0.2"/>
    </radialGradient>
    <linearGradient id="ringGrad" x1="10%" y1="0%" x2="90%" y2="100%">
      <stop offset="0%" stop-color="#f1f5f9"/>
      <stop offset="15%" stop-color="#e2e8f0"/>
      <stop offset="35%" stop-color="#cbd5e1"/>
      <stop offset="50%" stop-color="#94a3b8"/>
      <stop offset="70%" stop-color="#64748b"/>
      <stop offset="85%" stop-color="#475569"/>
      <stop offset="100%" stop-color="#334155"/>
    </linearGradient>
    <linearGradient id="ringInner" x1="90%" y1="100%" x2="10%" y2="0%">
      <stop offset="0%" stop-color="#cbd5e1" stop-opacity="0.6"/>
      <stop offset="50%" stop-color="#64748b" stop-opacity="0.3"/>
      <stop offset="100%" stop-color="#e2e8f0" stop-opacity="0.5"/>
    </linearGradient>
    <linearGradient id="ringHL" x1="0%" y1="0%" x2="100%" y2="100%">
      <stop offset="0%" stop-color="#ffffff" stop-opacity="1"/>
      <stop offset="100%" stop-color="#ffffff" stop-opacity="0"/>
    </linearGradient>
    <linearGradient id="handleGrad" x1="0%" y1="0%" x2="100%" y2="100%">
      <stop offset="0%" stop-color="#3f3f46"/>
      <stop offset="30%" stop-color="#27272a"/>
      <stop offset="70%" stop-color="#1c1c1e"/>
      <stop offset="100%" stop-color="#18181b"/>
    </linearGradient>
    <linearGradient id="handleShine" x1="0%" y1="0%" x2="100%" y2="100%">
      <stop offset="0%" stop-color="#ffffff" stop-opacity="0.25"/>
      <stop offset="100%" stop-color="#ffffff" stop-opacity="0"/>
    </linearGradient>
    <linearGradient id="bandGrad" x1="0%" y1="0%" x2="0%" y2="100%">
      <stop offset="0%" stop-color="#fde68a"/>
      <stop offset="40%" stop-color="#fbbf24"/>
      <stop offset="70%" stop-color="#f59e0b"/>
      <stop offset="100%" stop-color="#b45309"/>
    </linearGradient>
    <linearGradient id="gripGrad" x1="0%" y1="0%" x2="100%" y2="100%">
      <stop offset="0%" stop-color="#292524"/>
      <stop offset="50%" stop-color="#1c1917"/>
      <stop offset="100%" stop-color="#0c0a09"/>
    </linearGradient>

    <filter id="shadow" x="-20%" y="-20%" width="140%" height="140%">
      <feDropShadow dx="2" dy="4" stdDeviation="6" flood-color="#000" flood-opacity="0.45"/>
    </filter>
    <filter id="glow" x="-40%" y="-40%" width="180%" height="180%">
      <feGaussianBlur stdDeviation="5" result="blur"/>
      <feMerge><feMergeNode in="blur"/><feMergeNode in="SourceGraphic"/></feMerge>
    </filter>
    <filter id="softGlow" x="-30%" y="-30%" width="160%" height="160%">
      <feGaussianBlur stdDeviation="3" result="blur"/>
      <feMerge><feMergeNode in="blur"/><feMergeNode in="SourceGraphic"/></feMerge>
    </filter>
    <filter id="coinShadow" x="-30%" y="-30%" width="160%" height="160%">
      <feDropShadow dx="1" dy="2" stdDeviation="2" flood-color="#000" flood-opacity="0.5"/>
    </filter>
  </defs>

  <!-- Background -->
  <rect width="512" height="512" rx="108" ry="108" fill="url(#bg)"/>
  <radialGradient id="bgGlow" cx="30%" cy="22%" r="50%">
    <stop offset="0%" stop-color="#34d399" stop-opacity="0.08"/>
    <stop offset="100%" stop-color="#ffffff" stop-opacity="0"/>
  </radialGradient>
  <rect width="512" height="512" rx="108" ry="108" fill="url(#bgGlow)"/>

  <!-- ═══ ONE PROMINENT BILL (top-right, flying away) ═══ -->
  <g transform="translate(362,68) rotate(-20) scale(0.58)" filter="url(#shadow)">
    <!-- Wings — 3 layers -->
    <path d="M-90,0 C-126,-30 -170,-34 -192,-14 C-170,-20 -128,-6 -106,8Z" fill="white" opacity="0.7"/>
    <path d="M-90,14 C-120,-6 -164,-4 -186,18 C-162,8 -122,18 -100,30Z" fill="white" opacity="0.48"/>
    <path d="M-90,26 C-114,14 -148,20 -166,38 C-146,28 -114,32 -98,42Z" fill="white" opacity="0.28"/>
    <path d="M90,0 C126,-30 170,-34 192,-14 C170,-20 128,-6 106,8Z" fill="white" opacity="0.7"/>
    <path d="M90,14 C120,-6 164,-4 186,18 C162,8 122,18 100,30Z" fill="white" opacity="0.48"/>
    <path d="M90,26 C114,14 148,20 166,38 C146,28 114,32 98,42Z" fill="white" opacity="0.28"/>
    <!-- Bill body -->
    <rect x="-86" y="-48" width="172" height="96" rx="13" fill="url(#billGrad)"/>
    <rect x="-86" y="-48" width="172" height="96" rx="13" fill="none" stroke="#fbbf24" stroke-width="2.5" opacity="0.75"/>
    <rect x="-86" y="-48" width="172" height="48" rx="13" fill="url(#billShine)"/>
    <rect x="-72" y="-34" width="144" height="68" rx="8" fill="none" stroke="rgba(255,255,255,0.22)" stroke-width="1.5"/>
    <circle cx="0" cy="0" r="34" fill="rgba(255,255,255,0.1)" stroke="rgba(255,255,255,0.28)" stroke-width="2"/>
    <text x="0" y="14" font-family="'Arial Black',Arial,sans-serif" font-weight="900" font-size="42" fill="white" fill-opacity="0.95" text-anchor="middle">₱</text>
    <text x="-58" y="-26" font-family="Arial" font-weight="700" font-size="14" fill="rgba(255,255,255,0.7)">100</text>
    <text x="58" y="40" font-family="Arial" font-weight="700" font-size="14" fill="rgba(255,255,255,0.7)" text-anchor="end">100</text>
  </g>

  <!-- ═══ ONE BOLD GOLDEN TRACE — sweeping arc from bill to glass ═══ -->
  <!-- Wide glow behind -->
  <path d="M326,102 Q296,168 262,244 Q234,296 212,324" fill="none"
        stroke="#f59e0b" stroke-width="16" stroke-linecap="round"
        stroke-dasharray="15,10" opacity="0.14" filter="url(#glow)"/>
  <!-- Main trace -->
  <path d="M326,102 Q296,168 262,244 Q234,296 212,324" fill="none"
        stroke="url(#traceGrad)" stroke-width="6" stroke-linecap="round"
        stroke-dasharray="14,9" filter="url(#softGlow)"/>
  <!-- Subtle parallel trace -->
  <path d="M338,94 Q308,162 274,238 Q246,290 224,318" fill="none"
        stroke="rgba(253,230,138,0.35)" stroke-width="3" stroke-linecap="round"
        stroke-dasharray="10,12"/>

  <!-- ═══ THREE COINS tumbling along the trace ═══ -->

  <!-- Coin 1 — near bill, tilted, largest outside -->
  <g transform="translate(308,140) rotate(-12)" filter="url(#coinShadow)">
    <ellipse rx="13" ry="5.5" cy="6.5" fill="#8b6914"/>
    <ellipse rx="13" ry="5.5" cy="5.2" fill="#a07818"/>
    <ellipse rx="13" ry="5.5" cy="4" fill="url(#coinEdge)"/>
    <line x1="-10.5" y1="4" x2="-10.5" y2="6.5" stroke="#6b4f0a" stroke-width="0.9"/>
    <line x1="-7" y1="4.5" x2="-7" y2="7" stroke="#6b4f0a" stroke-width="0.9"/>
    <line x1="-3.5" y1="4.8" x2="-3.5" y2="7.3" stroke="#6b4f0a" stroke-width="0.9"/>
    <line x1="0" y1="5" x2="0" y2="7.5" stroke="#6b4f0a" stroke-width="0.9"/>
    <line x1="3.5" y1="4.8" x2="3.5" y2="7.3" stroke="#6b4f0a" stroke-width="0.9"/>
    <line x1="7" y1="4.5" x2="7" y2="7" stroke="#6b4f0a" stroke-width="0.9"/>
    <line x1="10.5" y1="4" x2="10.5" y2="6.5" stroke="#6b4f0a" stroke-width="0.9"/>
    <ellipse rx="13" ry="5.5" fill="url(#coinTop)"/>
    <ellipse rx="13" ry="5.5" fill="none" stroke="#b8860b" stroke-width="1.5"/>
    <ellipse rx="9.5" ry="3.8" fill="none" stroke="rgba(184,139,50,0.45)" stroke-width="0.7"/>
    <text y="2.2" font-family="'Arial Black',Arial,sans-serif" font-weight="900" font-size="7" fill="#6b4f0a" fill-opacity="0.9" text-anchor="middle">₱</text>
    <ellipse cx="-3.5" cy="-1.5" rx="5.5" ry="2" fill="rgba(255,255,255,0.35)" transform="rotate(-10)"/>
  </g>

  <!-- Coin 2 — mid-trace, different angle -->
  <g transform="translate(280,200) rotate(8)" filter="url(#coinShadow)">
    <ellipse rx="11" ry="4.5" cy="5.5" fill="#8b6914"/>
    <ellipse rx="11" ry="4.5" cy="4.5" fill="#a07818"/>
    <ellipse rx="11" ry="4.5" cy="3.5" fill="url(#coinEdge)"/>
    <line x1="-8.5" y1="3.5" x2="-8.5" y2="5.5" stroke="#6b4f0a" stroke-width="0.8"/>
    <line x1="-5" y1="4" x2="-5" y2="6" stroke="#6b4f0a" stroke-width="0.8"/>
    <line x1="-1.5" y1="4.2" x2="-1.5" y2="6.2" stroke="#6b4f0a" stroke-width="0.8"/>
    <line x1="2" y1="4" x2="2" y2="6" stroke="#6b4f0a" stroke-width="0.8"/>
    <line x1="5.5" y1="3.5" x2="5.5" y2="5.5" stroke="#6b4f0a" stroke-width="0.8"/>
    <ellipse rx="11" ry="4.5" fill="url(#coinTop)"/>
    <ellipse rx="11" ry="4.5" fill="none" stroke="#b8860b" stroke-width="1.3"/>
    <ellipse rx="8" ry="3" fill="none" stroke="rgba(184,139,50,0.42)" stroke-width="0.6"/>
    <text y="1.8" font-family="'Arial Black',Arial,sans-serif" font-weight="900" font-size="6" fill="#6b4f0a" fill-opacity="0.9" text-anchor="middle">₱</text>
    <ellipse cx="-2.8" cy="-1.2" rx="4.8" ry="1.6" fill="rgba(255,255,255,0.32)" transform="rotate(-8)"/>
  </g>

  <!-- Coin 3 — near glass, small, steep tilt -->
  <g transform="translate(252,256) rotate(-22)" filter="url(#coinShadow)">
    <ellipse rx="9" ry="3.8" cy="4.8" fill="#8b6914"/>
    <ellipse rx="9" ry="3.8" cy="3.8" fill="#a07818"/>
    <ellipse rx="9" ry="3.8" cy="3" fill="url(#coinEdge)"/>
    <line x1="-7" y1="3" x2="-7" y2="4.8" stroke="#6b4f0a" stroke-width="0.7"/>
    <line x1="-3.5" y1="3.5" x2="-3.5" y2="5.3" stroke="#6b4f0a" stroke-width="0.7"/>
    <line x1="0" y1="3.6" x2="0" y2="5.4" stroke="#6b4f0a" stroke-width="0.7"/>
    <line x1="3.5" y1="3.5" x2="3.5" y2="5.3" stroke="#6b4f0a" stroke-width="0.7"/>
    <line x1="7" y1="3" x2="7" y2="4.8" stroke="#6b4f0a" stroke-width="0.7"/>
    <ellipse rx="9" ry="3.8" fill="url(#coinTop)"/>
    <ellipse rx="9" ry="3.8" fill="none" stroke="#b8860b" stroke-width="1.1"/>
    <ellipse rx="6.5" ry="2.5" fill="none" stroke="rgba(184,139,50,0.38)" stroke-width="0.5"/>
    <text y="1.5" font-family="'Arial Black',Arial,sans-serif" font-weight="900" font-size="5" fill="#6b4f0a" fill-opacity="0.9" text-anchor="middle">₱</text>
    <ellipse cx="-2.2" cy="-1" rx="4" ry="1.3" fill="rgba(255,255,255,0.28)" transform="rotate(-12)"/>
  </g>

  <!-- ═══ MAGNIFYING GLASS ═══ -->

  <!-- Handle -->
  <line x1="284" y1="396" x2="400" y2="464" stroke="#000" stroke-width="54" stroke-linecap="round" opacity="0.3"/>
  <line x1="280" y1="390" x2="398" y2="460" stroke="#0a0a0a" stroke-width="52" stroke-linecap="round"/>
  <line x1="280" y1="390" x2="398" y2="460" stroke="url(#handleGrad)" stroke-width="46" stroke-linecap="round"/>
  <line x1="330" y1="418" x2="338" y2="423" stroke="rgba(255,255,255,0.06)" stroke-width="2"/>
  <line x1="340" y1="424" x2="348" y2="429" stroke="rgba(255,255,255,0.06)" stroke-width="2"/>
  <line x1="350" y1="430" x2="358" y2="435" stroke="rgba(255,255,255,0.06)" stroke-width="2"/>
  <line x1="360" y1="436" x2="368" y2="441" stroke="rgba(255,255,255,0.06)" stroke-width="2"/>
  <line x1="370" y1="442" x2="378" y2="447" stroke="rgba(255,255,255,0.06)" stroke-width="2"/>
  <line x1="282" y1="394" x2="392" y2="456" stroke="url(#handleShine)" stroke-width="12" stroke-linecap="round"/>
  <circle cx="398" cy="460" r="24" fill="url(#gripGrad)"/>
  <circle cx="398" cy="460" r="24" fill="none" stroke="rgba(255,255,255,0.08)" stroke-width="2"/>

  <!-- Gold band -->
  <line x1="274" y1="385" x2="298" y2="399" stroke="#0a0a0a" stroke-width="52" stroke-linecap="butt"/>
  <line x1="274" y1="385" x2="298" y2="399" stroke="url(#bandGrad)" stroke-width="48" stroke-linecap="butt"/>
  <line x1="274" y1="383" x2="292" y2="393" stroke="rgba(255,255,255,0.3)" stroke-width="8" stroke-linecap="round"/>

  <!-- Ring -->
  <circle cx="198" cy="315" r="126" fill="rgba(0,0,0,0.35)"/>
  <circle cx="194" cy="310" r="122" fill="none" stroke="#0f172a" stroke-width="9"/>
  <circle cx="194" cy="310" r="118" fill="none" stroke="url(#ringGrad)" stroke-width="48"/>
  <circle cx="194" cy="310" r="118" fill="none" stroke="url(#ringInner)" stroke-width="16"/>
  <circle cx="194" cy="310" r="118" fill="none" stroke="url(#ringHL)" stroke-width="24" stroke-dasharray="190 560" stroke-dashoffset="0" stroke-linecap="round"/>
  <circle cx="194" cy="310" r="118" fill="none" stroke="rgba(255,255,255,0.15)" stroke-width="10" stroke-dasharray="70 680" stroke-dashoffset="-300" stroke-linecap="round"/>
  <circle cx="194" cy="310" r="94" fill="none" stroke="#0f172a" stroke-width="4.5"/>
  <circle cx="194" cy="310" r="92" fill="none" stroke="rgba(148,163,184,0.3)" stroke-width="2"/>

  <!-- Lens -->
  <circle cx="194" cy="310" r="90" fill="#0a3d5c" opacity="0.08"/>
  <circle cx="194" cy="310" r="90" fill="url(#lensGlass)"/>
  <circle cx="194" cy="310" r="90" fill="url(#lensVignette)"/>

  <!-- ═══ MAGNIFIED CONTENT (hero coins — big and bold) ═══ -->
  <clipPath id="lensClip">
    <circle cx="194" cy="310" r="89"/>
  </clipPath>
  <g clip-path="url(#lensClip)">
    <!-- Magnified trace (single bold) -->
    <path d="M144,260 Q172,290 210,336" fill="none"
          stroke="#fde68a" stroke-width="8" stroke-linecap="round"
          stroke-dasharray="16,9" filter="url(#glow)" opacity="0.65"/>
    <path d="M156,248 Q184,278 222,324" fill="none"
          stroke="rgba(253,230,138,0.3)" stroke-width="4" stroke-linecap="round"
          stroke-dasharray="10,12"/>

    <!-- HERO COIN 1 — biggest, front and center -->
    <g transform="translate(162,282) rotate(-6)" filter="url(#glow)">
      <ellipse rx="26" ry="11.5" cy="11" fill="#6b4f0a"/>
      <ellipse rx="26" ry="11.5" cy="9" fill="#8b6914"/>
      <ellipse rx="26" ry="11.5" cy="7" fill="url(#coinEdge)"/>
      <line x1="-22" y1="7" x2="-22" y2="11" stroke="#5a4008" stroke-width="1.4"/>
      <line x1="-17.5" y1="8" x2="-17.5" y2="12" stroke="#5a4008" stroke-width="1.4"/>
      <line x1="-13" y1="8.8" x2="-13" y2="12.8" stroke="#5a4008" stroke-width="1.4"/>
      <line x1="-8.5" y1="9.3" x2="-8.5" y2="13.3" stroke="#5a4008" stroke-width="1.4"/>
      <line x1="-4" y1="9.6" x2="-4" y2="13.6" stroke="#5a4008" stroke-width="1.4"/>
      <line x1="0.5" y1="9.7" x2="0.5" y2="13.7" stroke="#5a4008" stroke-width="1.4"/>
      <line x1="5" y1="9.6" x2="5" y2="13.6" stroke="#5a4008" stroke-width="1.4"/>
      <line x1="9.5" y1="9.3" x2="9.5" y2="13.3" stroke="#5a4008" stroke-width="1.4"/>
      <line x1="14" y1="8.8" x2="14" y2="12.8" stroke="#5a4008" stroke-width="1.4"/>
      <line x1="18.5" y1="8" x2="18.5" y2="12" stroke="#5a4008" stroke-width="1.4"/>
      <line x1="23" y1="7" x2="23" y2="11" stroke="#5a4008" stroke-width="1.4"/>
      <ellipse rx="26" ry="11.5" fill="url(#coinTopBig)"/>
      <ellipse rx="26" ry="11.5" fill="none" stroke="#b8860b" stroke-width="2.5"/>
      <ellipse rx="20" ry="8.5" fill="none" stroke="rgba(180,130,30,0.5)" stroke-width="1.2"/>
      <text y="4.5" font-family="'Arial Black',Arial,sans-serif" font-weight="900" font-size="14" fill="#6b4f0a" fill-opacity="0.85" text-anchor="middle">₱</text>
      <ellipse cx="-7" cy="-3" rx="11" ry="4.2" fill="rgba(255,255,255,0.38)" transform="rotate(-8)"/>
    </g>

    <!-- HERO COIN 2 — slightly smaller, overlapping behind -->
    <g transform="translate(206,320) rotate(5)" filter="url(#glow)">
      <ellipse rx="21" ry="9" cy="9" fill="#6b4f0a"/>
      <ellipse rx="21" ry="9" cy="7.2" fill="#8b6914"/>
      <ellipse rx="21" ry="9" cy="5.8" fill="url(#coinEdge)"/>
      <line x1="-17.5" y1="5.8" x2="-17.5" y2="9" stroke="#5a4008" stroke-width="1.2"/>
      <line x1="-13" y1="6.6" x2="-13" y2="9.8" stroke="#5a4008" stroke-width="1.2"/>
      <line x1="-8.5" y1="7.2" x2="-8.5" y2="10.4" stroke="#5a4008" stroke-width="1.2"/>
      <line x1="-4" y1="7.5" x2="-4" y2="10.7" stroke="#5a4008" stroke-width="1.2"/>
      <line x1="0.5" y1="7.6" x2="0.5" y2="10.8" stroke="#5a4008" stroke-width="1.2"/>
      <line x1="5" y1="7.5" x2="5" y2="10.7" stroke="#5a4008" stroke-width="1.2"/>
      <line x1="9.5" y1="7.2" x2="9.5" y2="10.4" stroke="#5a4008" stroke-width="1.2"/>
      <line x1="14" y1="6.6" x2="14" y2="9.8" stroke="#5a4008" stroke-width="1.2"/>
      <line x1="18.5" y1="5.8" x2="18.5" y2="9" stroke="#5a4008" stroke-width="1.2"/>
      <ellipse rx="21" ry="9" fill="url(#coinTopBig)"/>
      <ellipse rx="21" ry="9" fill="none" stroke="#b8860b" stroke-width="2"/>
      <ellipse rx="16" ry="6.5" fill="none" stroke="rgba(180,130,30,0.45)" stroke-width="1"/>
      <text y="3.5" font-family="'Arial Black',Arial,sans-serif" font-weight="900" font-size="11.5" fill="#6b4f0a" fill-opacity="0.85" text-anchor="middle">₱</text>
      <ellipse cx="-5.5" cy="-2.5" rx="9" ry="3.4" fill="rgba(255,255,255,0.34)" transform="rotate(-6)"/>
    </g>

    <!-- HERO COIN 3 — smallest, tucked below -->
    <g transform="translate(240,352) rotate(-15)" filter="url(#softGlow)">
      <ellipse rx="16" ry="7" cy="7" fill="#6b4f0a"/>
      <ellipse rx="16" ry="7" cy="5.6" fill="#8b6914"/>
      <ellipse rx="16" ry="7" cy="4.5" fill="url(#coinEdge)"/>
      <line x1="-13" y1="4.5" x2="-13" y2="7" stroke="#5a4008" stroke-width="1"/>
      <line x1="-9" y1="5.2" x2="-9" y2="7.7" stroke="#5a4008" stroke-width="1"/>
      <line x1="-5" y1="5.6" x2="-5" y2="8.1" stroke="#5a4008" stroke-width="1"/>
      <line x1="-1" y1="5.8" x2="-1" y2="8.3" stroke="#5a4008" stroke-width="1"/>
      <line x1="3" y1="5.6" x2="3" y2="8.1" stroke="#5a4008" stroke-width="1"/>
      <line x1="7" y1="5.2" x2="7" y2="7.7" stroke="#5a4008" stroke-width="1"/>
      <line x1="11" y1="4.5" x2="11" y2="7" stroke="#5a4008" stroke-width="1"/>
      <ellipse rx="16" ry="7" fill="url(#coinTopBig)"/>
      <ellipse rx="16" ry="7" fill="none" stroke="#b8860b" stroke-width="1.7"/>
      <ellipse rx="12" ry="5" fill="none" stroke="rgba(180,130,30,0.4)" stroke-width="0.8"/>
      <text y="2.8" font-family="'Arial Black',Arial,sans-serif" font-weight="900" font-size="9" fill="#6b4f0a" fill-opacity="0.85" text-anchor="middle">₱</text>
      <ellipse cx="-4" cy="-1.8" rx="7" ry="2.6" fill="rgba(255,255,255,0.3)" transform="rotate(-10)"/>
    </g>

    <!-- Lens glare -->
    <ellipse cx="150" cy="258" rx="30" ry="13" fill="rgba(255,255,255,0.2)" transform="rotate(-32,150,258)"/>
  </g>

  <!-- Glass reflections -->
  <path d="M108,248 a104,104,0,0,1,100,-40" fill="none" stroke="rgba(255,255,255,0.6)" stroke-width="9" stroke-linecap="round"/>
  <path d="M124,262 a88,88,0,0,1,64,-30" fill="none" stroke="rgba(255,255,255,0.22)" stroke-width="5" stroke-linecap="round"/>
  <circle cx="140" cy="242" r="6" fill="white" opacity="0.45" filter="url(#softGlow)"/>
</svg>
